<svg width="18" height="17" viewBox="0 0 18 17" fill="none" xmlns="http://www.w3.org/2000/svg">
<g clip-path="url(#clip0_944_10962)">
<path d="M15.75 9C15.75 5.53219 13.1203 2.66906 9.75094 2.295V1.50188H11.25C11.6634 1.50188 12.0009 1.16719 12.0009 0.750938C12.0009 0.334688 11.6663 0 11.25 0H6.75C6.33656 0 5.99906 0.334688 5.99906 0.750938C5.99906 1.16719 6.33375 1.50188 6.75 1.50188H8.24906V2.295C4.87969 2.66906 2.25 5.53219 2.25 9C2.25 11.0672 3.18656 12.9178 4.65469 14.1581L3.87281 15.3337C3.64219 15.6797 3.73781 16.1438 4.08375 16.3744C4.42969 16.605 4.89375 16.5094 5.12437 16.1634L5.90344 14.9906C6.83156 15.4716 7.88344 15.75 9 15.75C10.1166 15.75 11.1684 15.4744 12.0966 14.9906L12.8756 16.1634C13.1034 16.5094 13.5703 16.6022 13.9163 16.3744C14.2622 16.1466 14.355 15.6797 14.1272 15.3337L13.3453 14.1581C14.8134 12.9178 15.7528 11.0672 15.7528 9H15.75ZM6.08906 13.365C6.08906 13.365 6.08906 13.365 6.08625 13.3622C6.08344 13.3622 6.08063 13.3622 6.075 13.3566C4.67438 12.4116 3.74906 10.8112 3.74906 9C3.74906 6.10594 6.10312 3.74906 9 3.74906C11.8969 3.74906 14.2509 6.10313 14.2509 9C14.2509 10.8141 13.3256 12.4172 11.9222 13.3594C11.9222 13.3594 11.9194 13.3594 11.9166 13.3594C11.0812 13.9191 10.08 14.2453 9.00281 14.2453C7.92562 14.2453 6.92438 13.9191 6.09188 13.3594L6.08906 13.365Z" fill="#343A40"/>
<path d="M15.5445 2.82379C15.2604 2.52285 14.7851 2.50879 14.4842 2.79285C14.1833 3.07692 14.1692 3.55223 14.4533 3.85317C15.7723 5.25098 16.4979 7.0791 16.4979 9.00004C16.4979 9.41348 16.8326 9.75098 17.2489 9.75098C17.6651 9.75098 17.9998 9.41629 17.9998 9.00004C17.9998 6.69379 17.1279 4.50004 15.5445 2.82379Z" fill="#343A40"/>
<path d="M3.51562 2.79285C3.21469 2.50879 2.73937 2.52285 2.45531 2.82379C0.871875 4.50004 0 6.69379 0 9.00004C0 9.41348 0.334688 9.75098 0.750938 9.75098C1.16719 9.75098 1.50188 9.41629 1.50188 9.00004C1.50188 7.0791 2.2275 5.25098 3.54656 3.85317C3.83062 3.55223 3.81656 3.07692 3.51562 2.79285Z" fill="#343A40"/>
<path d="M11.7815 10.7184L9.7509 8.68773V5.99898C9.7509 5.58555 9.41621 5.24805 8.99996 5.24805C8.58371 5.24805 8.24902 5.58273 8.24902 5.99898V8.99992C8.24902 9.19961 8.32777 9.39086 8.4684 9.53148L10.7184 11.7815C10.8646 11.9277 11.0559 12.0009 11.25 12.0009C11.444 12.0009 11.6325 11.9277 11.7815 11.7815C12.074 11.489 12.074 11.0137 11.7815 10.7212V10.7184Z" fill="#343A40"/>
</g>
<defs>
<clipPath id="clip0_944_10962">
<rect width="18" height="16.5009" fill="white"/>
</clipPath>
</defs>
</svg>
