<svg width="24" height="22" viewBox="0 0 24 22" fill="none" xmlns="http://www.w3.org/2000/svg">
<g clip-path="url(#clip0_769_7350)">
<path d="M21.1453 17.1447C20.8077 17.9133 20.4081 18.6208 19.9452 19.2713C19.3141 20.158 18.7974 20.7719 18.3992 21.1127C17.782 21.6722 17.1206 21.9587 16.4124 21.975C15.904 21.975 15.2908 21.8324 14.5771 21.5432C13.861 21.2553 13.203 21.1127 12.6013 21.1127C11.9702 21.1127 11.2934 21.2553 10.5695 21.5432C9.84449 21.8324 9.26042 21.9832 8.81386 21.9981C8.13472 22.0266 7.45779 21.732 6.78209 21.1127C6.35083 20.742 5.81141 20.1064 5.1652 19.2061C4.47187 18.2446 3.90186 17.1297 3.4553 15.8587C2.97705 14.4858 2.7373 13.1563 2.7373 11.8692C2.7373 10.3948 3.06055 9.12321 3.70799 8.0576C4.21683 7.20166 4.89376 6.52647 5.741 6.03081C6.58823 5.53514 7.50367 5.28256 8.48952 5.2664C9.02894 5.2664 9.73633 5.43085 10.6154 5.75405C11.492 6.07834 12.0548 6.24279 12.3016 6.24279C12.4861 6.24279 13.1113 6.0505 14.1713 5.66714C15.1737 5.31162 16.0197 5.16442 16.7127 5.2224C18.5907 5.37178 20.0017 6.10142 20.94 7.41595C19.2604 8.41896 18.4295 9.82379 18.4461 11.626C18.4612 13.0297 18.9779 14.1979 19.9934 15.1254C20.4536 15.5558 20.9675 15.8885 21.5393 16.1248C21.4153 16.4793 21.2844 16.8188 21.1453 17.1447ZM16.8381 0.440125C16.8381 1.54038 16.4303 2.56768 15.6174 3.51854C14.6363 4.64892 13.4497 5.30211 12.163 5.19904C12.1466 5.06705 12.1371 4.92813 12.1371 4.78214C12.1371 3.7259 12.6036 2.59552 13.4321 1.67127C13.8457 1.20331 14.3718 0.814209 15.0097 0.503814C15.6463 0.19805 16.2484 0.0289566 16.8147 0C16.8312 0.147086 16.8381 0.294182 16.8381 0.440111V0.440125Z" fill="white"/>
</g>
<defs>
<clipPath id="clip0_769_7350">
<rect width="22.3217" height="22" fill="white" transform="translate(0.876953)"/>
</clipPath>
</defs>
</svg>
