<svg width="18" height="18" viewBox="0 0 18 18" fill="none" xmlns="http://www.w3.org/2000/svg">
<path d="M16.9847 11.4244L15.84 10.2797C14.9625 9.40219 13.5366 9.40219 12.6591 10.2797L12.15 10.7887C11.9334 11.0053 11.6072 11.0728 11.34 10.9575C10.395 10.5469 9.50906 9.945 8.78062 9.21656C8.05219 8.48812 7.47 7.63594 7.05375 6.68813C6.92719 6.39844 6.98906 6.06938 7.20844 5.84719L7.7175 5.33812C8.595 4.46062 8.595 3.03469 7.7175 2.15719L6.57281 1.0125C5.92031 0.36 5.05125 0 4.12594 0C3.20062 0 2.33156 0.36 1.67625 1.01531L0.902812 1.78875C0.329063 2.3625 0 3.15281 0 3.96281C0 4.43531 0.106875 4.905 0.312187 5.31844C1.62563 7.99594 3.36094 10.4203 5.47031 12.5297C7.57969 14.6391 10.0041 16.3744 12.6816 17.6878C13.095 17.8903 13.5647 17.9972 14.0372 17.9972C14.8472 17.9972 15.6375 17.6681 16.2113 17.0972L16.9847 16.3237C17.64 15.6684 18 14.7994 18 13.8741C18 12.9488 17.64 12.0769 16.9847 11.4216V11.4244ZM15.9244 15.2662L15.1509 16.0397C14.8584 16.3322 14.4534 16.5009 14.0372 16.5009C13.7925 16.5009 13.5506 16.4475 13.3425 16.3434C10.8141 15.1003 8.52187 13.4606 6.53062 11.4694C4.53937 9.47812 2.89969 7.18594 1.65656 4.6575C1.5525 4.44937 1.49906 4.2075 1.49906 3.96281C1.49906 3.54938 1.66781 3.14156 1.96031 2.84906L2.73375 2.07562C3.105 1.70438 3.6 1.49906 4.12313 1.49906C4.64906 1.49906 5.14125 1.70438 5.5125 2.07562L6.65719 3.22031C6.94969 3.51281 6.94969 3.98813 6.65719 4.28062L6.14813 4.78969C5.48719 5.45062 5.30438 6.43219 5.68125 7.29281C6.17344 8.41219 6.85969 9.41906 7.72031 10.2797C8.58094 11.1403 9.62438 11.8491 10.7438 12.3356C11.5706 12.6956 12.5634 12.4987 13.2103 11.8519L13.7194 11.3428C14.0119 11.0503 14.4872 11.0503 14.7797 11.3428L15.9244 12.4875C16.2956 12.8588 16.5009 13.3538 16.5009 13.8769C16.5009 14.4028 16.2956 14.895 15.9244 15.2662Z" fill="white"/>
</svg>
