<svg width="15" height="12" viewBox="0 0 15 12" fill="none" xmlns="http://www.w3.org/2000/svg">
<path d="M0.96582 0.536761C0.96582 0.830566 1.21986 1.07917 1.50855 1.07917H3.31572L4.21064 7.05699C4.33767 7.91016 4.79956 8.42997 5.68294 8.42997H12.4035C12.6749 8.42997 12.9232 8.22091 12.9232 7.92146C12.9232 7.62765 12.6749 7.4186 12.4035 7.4186H5.81573C5.5386 7.4186 5.36539 7.23214 5.32497 6.94399L5.23259 6.35638H12.4497C13.3331 6.35638 13.8008 5.83091 13.9278 4.9721L14.3608 2.14139C14.3724 2.06794 14.3839 1.97189 14.3839 1.90974C14.3839 1.57638 14.1472 1.35038 13.7488 1.35038H4.49933L4.40695 0.740165C4.33189 0.248605 4.12981 0 3.48893 0H1.50855C1.21986 0 0.96582 0.248605 0.96582 0.536761ZM5.14598 10.2776C5.14598 10.8256 5.59633 11.2663 6.15638 11.2663C6.71643 11.2663 7.16678 10.8256 7.16678 10.2776C7.16678 9.72949 6.71643 9.28878 6.15638 9.28878C5.59633 9.28878 5.14598 9.72949 5.14598 10.2776ZM10.4751 10.2776C10.4751 10.8256 10.9312 11.2663 11.4913 11.2663C12.0513 11.2663 12.4959 10.8256 12.4959 10.2776C12.4959 9.72949 12.0513 9.28878 11.4913 9.28878C10.9312 9.28878 10.4751 9.72949 10.4751 10.2776Z" fill="white"/>
</svg>
