<svg width="25" height="24" viewBox="0 0 25 24" fill="none" xmlns="http://www.w3.org/2000/svg">
<path d="M16.234 17.25V20.625C16.234 21.2463 15.7204 21.75 15.0869 21.75H5.14517C4.51163 21.75 3.99805 21.2463 3.99805 20.625V7.875C3.99805 7.25368 4.51163 6.75 5.14517 6.75H7.05704C7.57815 6.75 8.08913 6.7926 8.58653 6.87444M16.234 17.25H19.6754C20.3089 17.25 20.8225 16.7463 20.8225 16.125V11.25C20.8225 6.79051 17.5153 3.08855 13.175 2.37444C12.6776 2.2926 12.1666 2.25 11.6455 2.25H9.73365C9.10011 2.25 8.58653 2.75368 8.58653 3.375V6.87444M16.234 17.25H9.73365C9.10011 17.25 8.58653 16.7463 8.58653 16.125V6.87444M20.8225 13.5V11.625C20.8225 9.76104 19.2817 8.25 17.3811 8.25H15.8516C15.2181 8.25 14.7045 7.74632 14.7045 7.125V5.625C14.7045 3.76104 13.1638 2.25 11.2631 2.25H10.116" stroke="#4A4A4A" stroke-width="1.5" stroke-linecap="round" stroke-linejoin="round"/>
</svg>
