<svg width="16" height="18" viewBox="0 0 16 18" fill="none" xmlns="http://www.w3.org/2000/svg">
<path d="M0.150391 15.2594C0.150391 16.6727 0.994141 17.4021 2.60631 17.4021H9.65765C11.2698 17.4021 12.1136 16.6662 12.1136 15.2594V14.0546H13.3943C15.0064 14.0546 15.8502 13.3187 15.8502 11.9119V6.76038C15.8502 5.9007 15.6392 5.35364 15.0441 4.82611L11.2924 1.51766C10.7199 1.01618 10.0419 0.820801 9.1755 0.820801H6.34291C4.73075 0.820801 3.887 1.55674 3.887 2.96999V4.16833H2.60631C0.994141 4.16833 0.150391 4.91077 0.150391 6.31751V15.2594ZM11.3527 8.40809L7.26953 4.82611C6.69699 4.32463 6.20731 4.18786 5.38616 4.17484V3.04814C5.38616 2.45549 5.74777 2.12334 6.47098 2.12334H9.61244V5.21687C9.61244 6.02444 10.1097 6.44777 11.0363 6.44777H14.3435V11.8273C14.3435 12.4264 13.9819 12.7586 13.2586 12.7586H12.1136V10.2577C12.1136 9.37848 11.9855 8.96818 11.3527 8.40809ZM10.8555 5.05405V2.65087L13.9517 5.37317H11.2246C10.9609 5.37317 10.8555 5.282 10.8555 5.05405ZM1.64955 15.1748V6.40218C1.64955 5.80301 2.01116 5.47086 2.74191 5.47086H5.03962V9.01377C5.03962 9.95811 5.5745 10.414 6.65932 10.414H10.6144V15.1748C10.6144 15.7739 10.2528 16.1061 9.52204 16.1061H2.73438C2.01116 16.1061 1.64955 15.7739 1.64955 15.1748ZM6.80246 9.27428C6.49358 9.27428 6.35798 9.16356 6.35798 8.89003V5.71835L10.411 9.27428H6.80246Z" fill="#1C1C1C"/>
</svg>
