<svg width="18" height="18" viewBox="0 0 18 18" fill="none" xmlns="http://www.w3.org/2000/svg">
<g clip-path="url(#clip0_742_12255)">
<path d="M9 0C4.03875 0 0 4.03875 0 9C0 13.9613 4.03875 18 9 18C13.9613 18 18 13.9613 18 9C18 4.03875 13.9613 0 9 0ZM9 16.5009C4.86562 16.5009 1.49906 13.1372 1.49906 9C1.49906 4.86281 4.86562 1.49906 9 1.49906C13.1344 1.49906 16.5009 4.86281 16.5009 9C16.5009 13.1372 13.1372 16.5009 9 16.5009Z" fill="white"/>
<path d="M14.2509 10.4991H13.4043C13.4662 10.0013 13.4999 9.50064 13.4999 9.00001C13.4999 8.49939 13.4662 7.99595 13.4043 7.50095H14.2509C14.6643 7.50095 15.0018 7.16626 15.0018 6.75001C15.0018 6.33376 14.6671 5.99907 14.2509 5.99907H13.1174C12.884 5.09626 12.5521 4.22157 12.1162 3.39751C11.9221 3.03189 11.4693 2.89126 11.1037 3.08532C10.738 3.27939 10.5974 3.7322 10.7915 4.09782C11.1093 4.70251 11.3512 5.34095 11.5452 5.99626H9.75086V5.24532C9.75086 4.83189 9.41617 4.49439 8.99992 4.49439C8.58367 4.49439 8.24898 4.82907 8.24898 5.24532V5.99626H6.45461C6.64867 5.34095 6.89055 4.6997 7.20836 4.09782C7.40242 3.7322 7.2618 3.27657 6.89617 3.08532C6.52773 2.89126 6.07773 3.03189 5.88367 3.39751C5.44773 4.22157 5.11586 5.09626 4.88242 5.99907H3.74898C3.33555 5.99907 2.99805 6.33376 2.99805 6.75001C2.99805 7.16626 3.33273 7.50095 3.74898 7.50095H4.59555C4.53367 7.99876 4.49992 8.49939 4.49992 9.00001C4.49992 9.50064 4.53367 10.0041 4.59555 10.4991H3.74898C3.33555 10.4991 2.99805 10.8338 2.99805 11.25C2.99805 11.6663 3.33273 12.0009 3.74898 12.0009H4.88242C5.11586 12.9038 5.44773 13.7784 5.88367 14.6025C6.01867 14.8556 6.27742 15.0019 6.54742 15.0019C6.66555 15.0019 6.78648 14.9738 6.89617 14.9147C7.2618 14.7206 7.40242 14.2678 7.20836 13.9022C6.89055 13.2975 6.64867 12.6591 6.45461 12.0038H8.24898V12.7547C8.24898 13.1681 8.58367 13.5056 8.99992 13.5056C9.41617 13.5056 9.75086 13.1709 9.75086 12.7547V12.0038H11.5452C11.3512 12.6591 11.1093 13.3003 10.7915 13.9022C10.5974 14.2678 10.738 14.7234 11.1037 14.9147C11.2162 14.9738 11.3343 15.0019 11.4524 15.0019C11.7224 15.0019 11.9812 14.8556 12.1162 14.6025C12.5521 13.7784 12.884 12.9038 13.1174 12.0009H14.2509C14.6643 12.0009 15.0018 11.6663 15.0018 11.25C15.0018 10.8338 14.6671 10.4991 14.2509 10.4991ZM6.11992 10.4991C6.04961 10.0013 6.0018 9.50345 6.0018 9.00001C6.0018 8.49657 6.04961 7.99595 6.11992 7.50095H8.2518V10.5019H6.11992V10.4991ZM9.75086 10.4991V7.49814H11.8827C11.953 7.99595 12.0009 8.49376 12.0009 8.9972C12.0009 9.50064 11.953 10.0013 11.8827 10.4963H9.75086V10.4991Z" fill="white"/>
</g>
<defs>
<clipPath id="clip0_742_12255">
<rect width="18" height="18" fill="white"/>
</clipPath>
</defs>
</svg>
