<svg width="40" height="40" viewBox="0 0 40 40" fill="none" xmlns="http://www.w3.org/2000/svg">
<path d="M38.9314 16.5535C38.1628 15.5989 37.6754 14.7606 37.3879 13.91C37.1129 13.1023 36.7755 12.3007 36.3818 11.5297C35.9694 10.722 35.7069 9.78583 35.5569 8.59262C35.4257 7.49732 34.932 6.50604 34.1322 5.72281C33.3385 4.94569 32.32 4.46229 31.2076 4.32767C29.9828 4.18693 29.033 3.92993 28.2018 3.51996C27.4207 3.13446 26.6021 2.80404 25.771 2.5348C24.9024 2.25333 24.04 1.76992 23.0714 1.0234C21.2967 -0.341135 18.6908 -0.341135 16.9161 1.0234C15.9475 1.76992 15.0914 2.25333 14.2228 2.5348C13.3917 2.80404 12.573 3.13446 11.7919 3.51996C10.9608 3.92382 10.0109 4.18081 8.78613 4.32767C7.66755 4.45617 6.65521 4.93957 5.86158 5.72281C5.06171 6.49992 4.57429 7.49732 4.43681 8.5865C4.29308 9.77971 4.03062 10.7159 3.61194 11.5297C3.2245 12.3007 2.88705 13.0962 2.61209 13.91C2.32464 14.7606 1.83721 15.5989 1.06858 16.5535C0.368692 17.4224 0 18.4626 0 19.5701C0 20.6777 0.368692 21.7179 1.06858 22.5807C1.83721 23.5352 2.32464 24.3736 2.61209 25.2241C2.88705 26.0318 3.2245 26.8334 3.61819 27.6044C4.03062 28.4121 4.29308 29.3483 4.44306 30.5415C4.57429 31.6368 5.06796 32.6281 5.86783 33.4113C6.66146 34.1884 7.68005 34.6718 8.79238 34.8065C10.0172 34.9472 10.967 35.2042 11.7982 35.6142C12.5793 35.9997 13.3979 36.3301 14.229 36.5993C15.0976 36.8808 15.96 37.3642 16.9286 38.1107C17.816 38.7899 18.8783 39.151 20.0031 39.151C21.1279 39.151 22.1965 38.7899 23.0839 38.1046C24.0525 37.3581 24.9086 36.8747 25.7772 36.5932C26.6083 36.324 27.427 35.9935 28.2081 35.6081C29.0392 35.2042 29.9891 34.9472 31.2139 34.8003C32.3324 34.6718 33.3448 34.1884 34.1384 33.4052C34.9383 32.6281 35.4257 31.6307 35.5632 30.5415C35.7069 29.3483 35.9694 28.4121 36.3881 27.5983C36.7755 26.8273 37.1129 26.0318 37.3879 25.218C37.6754 24.3674 38.1628 23.5291 38.9314 22.5746C39.6313 21.7057 40 20.6654 40 19.5579C40 18.4503 39.6313 17.4101 38.9314 16.5473V16.5535ZM36.3131 20.5614C35.3007 21.8219 34.6383 22.9784 34.2259 24.1961C34.0009 24.857 33.726 25.5117 33.4073 26.1419C32.8199 27.2862 32.4449 28.5957 32.2512 30.1621C32.22 30.413 32.1137 30.7802 31.7825 31.1106C31.4513 31.4349 31.0701 31.5389 30.8139 31.5695C29.2204 31.7531 27.8831 32.1263 26.7146 32.6954C26.0772 33.0075 25.4085 33.2767 24.7274 33.497C23.4963 33.8947 22.2778 34.5678 21.0217 35.5407C20.8155 35.6998 20.4718 35.8895 20.0031 35.8895C19.5344 35.8895 19.1908 35.6998 18.9845 35.5469C17.7222 34.5678 16.5037 33.9008 15.2726 33.5031C14.5915 33.2828 13.9228 33.0136 13.2854 32.7015C12.1169 32.1325 10.7796 31.7592 9.18606 31.5756C8.92985 31.545 8.54867 31.441 8.21747 31.1167C7.88627 30.7924 7.78004 30.4253 7.74879 30.1683C7.56132 28.6079 7.18013 27.2923 6.59897 26.1542C6.27402 25.5239 5.99906 24.8692 5.7741 24.2083C5.36166 22.9907 4.69927 21.8342 3.68692 20.5736C3.52445 20.3717 3.33698 20.0413 3.33698 19.5762C3.33698 19.1112 3.5307 18.7808 3.69317 18.5788C4.70551 17.3183 5.36791 16.1618 5.78035 14.9442C6.00531 14.2833 6.28027 13.6286 6.59897 12.9983C7.18638 11.8541 7.56132 10.5446 7.75504 8.97812C7.78628 8.72724 7.89252 8.3601 8.22371 8.02967C8.55491 7.70536 8.9361 7.60134 9.19231 7.57075C10.7858 7.38718 12.1231 7.01392 13.2917 6.44485C13.9291 6.13278 14.5977 5.86354 15.2789 5.64326C16.5099 5.24552 17.7285 4.57243 18.9845 3.59951C19.1908 3.44041 19.5344 3.25072 20.0031 3.25072C20.4718 3.25072 20.8155 3.44041 21.0217 3.59339C22.284 4.57243 23.5026 5.2394 24.7336 5.63714C25.4148 5.85742 26.0834 6.12666 26.7208 6.43873C27.8894 7.0078 29.2267 7.38106 30.8202 7.56463C31.0764 7.59522 31.4576 7.69924 31.7888 8.02355C32.12 8.34786 32.2262 8.715 32.2575 8.972C32.4449 10.5323 32.8261 11.8479 33.4073 12.9861C33.7322 13.6163 34.0072 14.2711 34.2322 14.9319C34.6446 16.1496 35.307 17.3061 36.3193 18.5666C36.4818 18.7685 36.6693 19.099 36.6693 19.564C36.6693 20.0291 36.4755 20.3595 36.3131 20.5614Z" fill="white"/>
<path d="M23.8218 15.1461L19.51 19.3621C18.8601 19.9985 17.804 19.9985 17.1541 19.3621L16.1792 18.4075C15.5293 17.7711 14.4733 17.7711 13.8234 18.4075C13.1735 19.0439 13.1735 20.078 13.8234 20.7144L14.7982 21.6689C15.7731 22.6235 17.0541 23.1008 18.3352 23.1008C19.6162 23.1008 20.8973 22.6235 21.8721 21.6689L26.1839 17.4468C26.8338 16.8105 26.8338 15.7763 26.1839 15.14C25.534 14.5036 24.4779 14.5036 23.828 15.14L23.8218 15.1461Z" fill="white"/>
</svg>
