<svg width="30" height="31" viewBox="0 0 30 31" fill="none" xmlns="http://www.w3.org/2000/svg">
<path d="M28.4248 10.5861C29.4042 10.5861 29.9315 10.0437 29.9315 9.06431V5.40304C29.9315 2.17871 28.244 0.491211 24.9745 0.491211H21.3132C20.3338 0.491211 19.7914 1.01855 19.7914 1.99791C19.7914 2.96219 20.3338 3.48954 21.3132 3.48954H24.7786C26.1497 3.48954 26.9332 4.21275 26.9332 5.67425V9.06431C26.9332 10.0437 27.4605 10.5861 28.4248 10.5861ZM1.56041 10.5861C2.53976 10.5861 3.05204 10.0437 3.05204 9.06431V5.67425C3.05204 4.21275 3.82045 3.48954 5.20661 3.48954H8.67201C9.65137 3.48954 10.1938 2.96219 10.1938 1.99791C10.1938 1.01855 9.65137 0.491211 8.67201 0.491211H5.01074C1.75628 0.491211 0.0537109 2.16364 0.0537109 5.40304V9.06431C0.0537109 10.0437 0.596122 10.5861 1.56041 10.5861ZM8.46108 22.1726H21.5543C23.1514 22.1726 23.9951 21.3439 23.9951 19.7619V11.9572C23.9951 10.3601 23.1514 9.53139 21.5543 9.53139H19.7613C19.1737 9.53139 18.9929 9.44099 18.6313 9.04925L18.0437 8.4315C17.6519 8.02469 17.2602 7.81376 16.5068 7.81376H13.4482C12.71 7.81376 12.3032 8.00963 11.9265 8.4315L11.3238 9.04925C10.9622 9.42592 10.7814 9.53139 10.2088 9.53139H8.46108C6.84891 9.53139 6.00516 10.3601 6.00516 11.9572V19.7619C6.00516 21.3439 6.84891 22.1726 8.46108 22.1726ZM15.0152 20.1687C12.5894 20.1687 10.6307 18.225 10.6307 15.7842C10.6307 13.3584 12.5894 11.4148 15.0152 11.4148C17.441 11.4148 19.3846 13.3584 19.3846 15.7842C19.3846 18.2702 17.441 20.1687 15.0152 20.1687ZM20.9215 13.7953C20.364 13.7953 19.8969 13.3584 19.8969 12.7708C19.8969 12.1982 20.364 11.7462 20.9215 11.7462C21.494 11.7462 21.946 12.1982 21.9611 12.7708C21.9611 13.3584 21.494 13.7953 20.9215 13.7953ZM15.0001 18.6921C16.5972 18.6921 17.9081 17.3963 17.9081 15.7842C17.9081 14.172 16.5972 12.8913 15.0001 12.8913C13.403 12.8913 12.1073 14.172 12.1073 15.7842C12.1073 17.3963 13.403 18.6921 15.0001 18.6921ZM5.01074 30.369H8.67201C9.65137 30.369 10.1938 29.8266 10.1938 28.8623C10.1938 27.898 9.65137 27.3556 8.67201 27.3556H5.20661C3.82045 27.3556 3.05204 26.6475 3.05204 25.186V21.7959C3.05204 20.8165 2.52469 20.2741 1.56041 20.2741C0.581055 20.2741 0.0537109 20.8165 0.0537109 21.7959V25.4572C0.0537109 28.6815 1.75628 30.369 5.01074 30.369ZM21.3132 30.369H24.9745C28.244 30.369 29.9315 28.6815 29.9315 25.4572V21.7959C29.9315 20.8165 29.3891 20.2741 28.4248 20.2741C27.4455 20.2741 26.9332 20.8165 26.9332 21.7959V25.186C26.9332 26.6475 26.1497 27.3556 24.7786 27.3556H21.3132C20.3338 27.3556 19.7914 27.898 19.7914 28.8623C19.7914 29.8266 20.3338 30.369 21.3132 30.369Z" fill="white" fill-opacity="0.85"/>
</svg>
