<svg width="22" height="22" viewBox="0 0 22 22" fill="none" xmlns="http://www.w3.org/2000/svg">
<g clip-path="url(#clip0_742_10782)">
<path d="M16.4314 22H12.7047L11.003 21.4389L9.31356 22H5.56862C2.49459 22 0 19.5054 0 16.4314V5.56862C0 2.49459 2.49459 0 5.56862 0H16.4314C19.5054 0 22 2.49459 22 5.56862V16.4314C22 19.5054 19.5054 22 16.4314 22Z" fill="#337FFF"/>
<path d="M9.30178 8.60605V10.997H6.54492V14.1381H9.30178V21.9939H12.6991V14.1381H15.2303L15.7121 10.997H12.6991V8.95981C12.6991 8.09982 13.1199 7.26422 14.4678 7.26422H15.8402V4.59275C15.8402 4.59275 14.5959 4.37927 13.4066 4.37927C10.9242 4.37927 9.30178 5.88579 9.30178 8.60605Z" fill="white"/>
</g>
<defs>
<clipPath id="clip0_742_10782">
<rect width="22" height="22" fill="white"/>
</clipPath>
</defs>
</svg>
