<svg width="24" height="22" viewBox="0 0 24 22" fill="none" xmlns="http://www.w3.org/2000/svg">
<g clip-path="url(#clip0_769_7347)">
<path d="M23.2378 11C23.2378 4.92492 18.2408 0 12.0769 0C5.91296 0 0.916016 4.92492 0.916016 11C0.916016 16.1586 4.51964 20.4873 9.38087 21.6762V14.3616H7.07949V11H9.38087V9.55152C9.38087 5.80756 11.1001 4.0722 14.8296 4.0722C15.5368 4.0722 16.7569 4.20904 17.256 4.34544V7.39244C16.9926 7.36516 16.535 7.35152 15.9667 7.35152C14.1367 7.35152 13.4296 8.03484 13.4296 9.81112V11H17.0752L16.4488 14.3616H13.4296V21.9195C18.956 21.2617 23.2382 16.6241 23.2382 11H23.2378Z" fill="white"/>
<path d="M16.4484 14.3617L17.0748 11.0001H13.4292V9.81118C13.4292 8.0349 14.1363 7.35159 15.9663 7.35159C16.5346 7.35159 16.9922 7.36522 17.2556 7.3925V4.34551C16.7565 4.20867 15.5364 4.07227 14.8292 4.07227C11.0997 4.07227 9.38047 5.80763 9.38047 9.55159V11.0001H7.0791V14.3617H9.38047V21.6762C10.2439 21.8874 11.147 22.0001 12.0765 22.0001C12.5341 22.0001 12.9854 21.9723 13.4287 21.9195V14.3617H16.448H16.4484Z" fill="#0866FF"/>
</g>
<defs>
<clipPath id="clip0_769_7347">
<rect width="22.3217" height="22" fill="white" transform="translate(0.916016)"/>
</clipPath>
</defs>
</svg>
