<svg width="12" height="12" viewBox="0 0 12 12" fill="none" xmlns="http://www.w3.org/2000/svg">
<path d="M10.7306 0.361641C7.61437 -0.120234 4.39875 -0.120234 1.2825 0.359766C0.54 0.474141 0 1.09852 0 1.84477V3.22852C0 3.49852 0.07125 3.76102 0.2025 3.98789C0.601875 4.66664 1.0875 5.29289 1.64625 5.85164C2.02312 6.22852 2.43375 6.57352 2.86687 6.87914C3.2625 7.15852 3.50063 7.61602 3.50063 8.09977V9.72914C3.50063 10.9798 4.51875 11.996 5.76937 11.996C6.375 11.996 6.945 11.7598 7.3725 11.3323L7.8375 10.8673C8.26688 10.4398 8.50125 9.86977 8.50125 9.26414V8.09977C8.50125 7.61414 8.7375 7.15852 9.13313 6.87914C9.56812 6.57352 9.97875 6.22664 10.3538 5.85164C10.9106 5.29477 11.3962 4.66664 11.7975 3.98789C11.9306 3.76102 12 3.49852 12 3.22852V1.84477C12 1.09852 11.4656 0.474141 10.7306 0.361641ZM10.9987 3.22852C10.9987 3.32039 10.9763 3.40852 10.9331 3.47977C10.5769 4.08539 10.1419 4.64602 9.645 5.14289C9.30937 5.47852 8.94187 5.78789 8.55375 6.06164C7.89187 6.52852 7.49813 7.28977 7.49813 8.09977V9.26414C7.49813 9.60352 7.36687 9.92039 7.12687 10.1604L6.66187 10.6254C6.42188 10.8654 6.10313 10.9966 5.76562 10.9966C5.06625 10.9966 4.49813 10.4285 4.49813 9.72914V8.09977C4.49813 7.28977 4.1025 6.52852 3.4425 6.06164C3.05438 5.78789 2.68875 5.48039 2.35313 5.14477C1.85625 4.64789 1.42125 4.08727 1.065 3.48164C1.02188 3.41039 0.999375 3.32039 0.999375 3.22852V1.84477C0.999375 1.59539 1.18125 1.38727 1.43438 1.34789C2.94 1.11539 4.47563 0.999141 6 0.999141C7.52437 0.999141 9.06938 1.11727 10.5787 1.34977C10.8225 1.38727 11.0006 1.59539 11.0006 1.84477V3.22852H10.9987Z" fill="#343A40"/>
<path d="M9.99937 1.99854H2.00062C1.725 1.99854 1.5 2.22166 1.5 2.49916C1.5 2.77666 1.72312 2.99979 2.00062 2.99979H10.0012C10.2769 2.99979 10.5019 2.77666 10.5019 2.49916C10.5019 2.22166 10.2787 1.99854 10.0012 1.99854H9.99937Z" fill="#343A40"/>
<path d="M6.50098 6.49854H5.5016C5.22598 6.49854 5.00098 6.72166 5.00098 6.99916C5.00098 7.27666 5.2241 7.49979 5.5016 7.49979H6.50098C6.7766 7.49979 7.0016 7.27666 7.0016 6.99916C7.0016 6.72166 6.77848 6.49854 6.50098 6.49854Z" fill="#343A40"/>
</svg>
