<svg width="24" height="23" viewBox="0 0 24 23" fill="none" xmlns="http://www.w3.org/2000/svg">
<path d="M19.8926 19.7812C22.5901 17.2999 23.7889 13.1644 23.0696 9.20605H12.3398V13.5779H18.454C18.2143 14.9958 17.375 16.1773 16.1762 16.9454L19.8926 19.7812Z" fill="#4285F4"/>
<path d="M2.15039 16.2957C2.24862 16.4863 2.35218 16.674 2.46108 16.8589C2.57006 17.0438 2.68422 17.2254 2.80354 17.4039C2.92294 17.5823 3.04727 17.7574 3.17668 17.9289C3.30609 18.1005 3.44026 18.2682 3.57934 18.4323C3.71835 18.5964 3.86193 18.7564 4.01019 18.9125C4.15836 19.0686 4.31096 19.2204 4.46788 19.368C4.62481 19.5155 4.78583 19.6586 4.95093 19.7972C5.11603 19.9358 5.28497 20.0696 5.45782 20.1988C5.63059 20.328 5.80695 20.4523 5.98689 20.5716C6.16684 20.6909 6.35003 20.8052 6.53656 20.9143C6.72301 21.0234 6.91246 21.1273 7.10491 21.2259C7.29736 21.3245 7.49248 21.4177 7.69026 21.5054C7.88805 21.593 8.08817 21.6752 8.29071 21.7517C8.49317 21.8283 8.69771 21.8992 8.90425 21.9643C9.11079 22.0295 9.31909 22.0889 9.52905 22.1424C9.73901 22.196 9.9503 22.2437 10.163 22.2855C10.3757 22.3273 10.5894 22.3631 10.8042 22.393C11.019 22.4228 11.2344 22.4468 11.4506 22.4646C11.6667 22.4824 11.8831 22.4943 12.0999 22.5001C12.3167 22.5059 12.5335 22.5057 12.7503 22.4994C12.9671 22.4932 13.1835 22.4809 13.3997 22.4625C13.6157 22.4442 13.8311 22.4199 14.0458 22.3896C14.2605 22.3592 14.4741 22.3229 14.6868 22.2807C14.8994 22.2384 15.1106 22.1903 15.3204 22.1364C15.5303 22.0824 15.7384 22.0225 15.9449 21.957C16.1512 21.8914 16.3556 21.82 16.558 21.743C16.7603 21.666 16.9602 21.5835 17.1579 21.4953C17.3555 21.4072 17.5503 21.3137 17.7425 21.2147C17.9348 21.1157 18.124 21.0114 18.3103 20.9019C18.4965 20.7923 18.6795 20.6777 18.8591 20.558C19.0388 20.4383 19.2149 20.3136 19.3875 20.1841C19.56 20.0546 19.7287 19.9203 19.8934 19.7814L16.177 16.9456C13.0001 19.0133 7.72512 18.2454 5.92677 13.4009L2.15039 16.2957Z" fill="#34A853"/>
<path d="M5.92601 13.401C5.44647 11.924 5.44647 10.5652 5.92601 9.08823L2.14963 6.19336C0.770953 8.91104 0.351365 12.7511 2.14963 16.2959L5.92601 13.401Z" fill="#FBBC02"/>
<path d="M5.92677 9.08798C7.24558 5.01158 12.8802 2.64843 16.6566 6.13403L19.9534 2.9438C15.2779 -1.48706 6.16659 -1.30987 2.15039 6.19312L5.92677 9.08798Z" fill="#EA4335"/>
</svg>
