<svg width="16" height="16" viewBox="0 0 16 16" fill="none" xmlns="http://www.w3.org/2000/svg">
<g clip-path="url(#clip0_944_10973)">
<path d="M7.61 12.9451C8.13 12.4251 8.13 11.5801 7.61 11.0601C7.09 10.5401 6.245 10.5401 5.725 11.0601L5.335 11.4501L5.335 2.66508C5.335 1.93008 4.74 1.33008 4 1.33008C3.26 1.33008 2.665 1.92508 2.665 2.66508L2.665 11.4451L2.275 11.0551C1.755 10.5351 0.910001 10.5351 0.390001 11.0551C0.130001 11.3151 5.02354e-07 11.6551 4.87274e-07 12.0001C4.72193e-07 12.3451 0.130001 12.6801 0.390001 12.9451L3.055 15.6101C3.575 16.1301 4.42 16.1301 4.94 15.6101L7.605 12.9451L7.61 12.9451Z" fill="#343A40"/>
<path d="M8 4C8 4.34 8.13 4.68 8.39 4.945C8.91 5.465 9.755 5.465 10.275 4.945L10.665 4.555L10.665 13.335C10.665 14.07 11.26 14.67 12 14.67C12.74 14.67 13.335 14.075 13.335 13.335L13.335 4.55L13.725 4.94C14.245 5.46 15.09 5.46 15.61 4.94C16.13 4.42 16.13 3.575 15.61 3.055L12.945 0.39C12.425 -0.13 11.58 -0.13 11.06 0.39L8.395 3.055C8.135 3.315 8.005 3.655 8.005 4L8 4Z" fill="#343A40"/>
</g>
<defs>
<clipPath id="clip0_944_10973">
<rect width="16" height="16" fill="white" transform="translate(16) rotate(90)"/>
</clipPath>
</defs>
</svg>
