<svg width="18" height="18" viewBox="0 0 18 18" fill="none" xmlns="http://www.w3.org/2000/svg">
<g clip-path="url(#clip0_742_10903)">
<path d="M9 0C4.02958 0 0 4.02944 0 9.0003C0 13.9712 4.02958 18 9 18C13.9704 18 18 13.9706 18 9.0003C18 4.03005 13.9704 0 9 0ZM1.62824 5.97609C1.64465 5.97609 1.66045 5.97427 1.67686 5.97366C1.67686 6.01681 1.68294 6.06118 1.67565 6.10251C1.64526 6.27876 1.70786 6.39302 1.88472 6.43921C1.99412 6.46838 2.01418 6.54921 2.00324 6.64888C1.97103 6.95519 2.02816 7.23294 2.2111 7.49428C2.30531 7.6292 2.39404 7.71003 2.56605 7.69119C2.63351 7.5824 2.594 7.4882 2.52776 7.38731C2.29376 7.03056 2.25304 6.89928 2.27006 6.60391H2.41106C2.41896 6.61789 2.42869 6.62761 2.42869 6.63673C2.43233 7.01719 2.65053 7.3004 2.86203 7.58544C2.92342 7.66688 2.94105 7.73313 2.8827 7.82672C2.85778 7.86622 2.86446 7.94037 2.88209 7.99021C3.02066 8.39194 3.38716 8.41868 3.72387 8.48979C3.74696 8.49465 3.7737 8.47702 3.79923 8.47095C3.88371 8.45028 3.9688 8.43083 4.07334 8.40592C4.06726 8.50863 4.06422 8.56332 4.06058 8.61377C4.07334 8.62592 4.08063 8.6399 4.08914 8.64051C4.47083 8.66725 4.75588 8.85444 4.95766 9.17108C5.04639 9.31026 5.17889 9.32606 5.32354 9.33396C5.70462 9.35463 5.70887 9.35645 5.73501 9.73387C5.73926 9.79525 5.69611 9.89553 5.64627 9.91984C5.39161 10.0438 5.34117 10.2456 5.30288 10.5118C5.26094 10.8035 5.3357 11.0047 5.52654 11.201C5.63959 11.3183 5.79275 11.4429 5.82131 11.5851C5.87054 11.8331 6.04194 11.8829 6.2188 11.9862C6.64303 12.2342 6.63513 12.2476 6.63513 12.7405C6.63513 12.9775 6.64121 13.2145 6.6327 13.4515C6.62844 13.5761 6.64121 13.6752 6.79923 13.691C6.77188 13.8575 6.75669 14.0155 6.71657 14.1663C6.68618 14.2799 6.70806 14.3662 6.78707 14.441C6.95421 14.6008 6.99129 14.7904 6.94145 15.0104C6.89769 15.2049 6.94267 15.3799 7.05146 15.5544C7.19489 15.7841 7.33712 16.0029 7.54133 16.1919C7.7267 16.3639 7.92241 16.3864 8.14364 16.373C8.17889 16.3712 8.2342 16.3402 8.2421 16.3116C8.25304 16.2721 8.24331 16.1968 8.21657 16.181C7.95948 16.0296 7.88047 15.8279 8.01054 15.5513C8.0233 15.524 8.01236 15.4851 8.01236 15.4711C7.8908 15.4158 7.77836 15.3648 7.66289 15.3125C7.76195 15.1764 7.83428 15.0773 7.90235 14.9843C7.8671 14.946 7.86102 14.9363 7.8519 14.9302C7.79417 14.8901 7.73582 14.8512 7.67747 14.8117C7.74007 14.7801 7.80085 14.74 7.8671 14.7187C8.16126 14.6257 8.45178 14.5498 8.60737 14.2264C8.69854 14.0374 8.85231 13.8757 8.9921 13.7141C9.09481 13.595 9.12277 13.4831 9.07537 13.3312C9.03221 13.1908 8.97812 13.0449 9.08995 12.8966C9.14769 12.8195 9.19571 12.7866 9.29234 12.7842C9.42727 12.7812 9.57314 12.7775 9.69469 12.7265C9.87824 12.6493 9.95968 12.4937 9.95604 12.2804C9.95239 12.0877 9.98217 11.892 10.0174 11.7012C10.0308 11.6313 10.0891 11.5511 10.1499 11.5116C10.5091 11.2806 10.6811 10.9062 10.5936 10.5142C10.5055 10.1161 10.1943 9.84023 9.77674 9.79647C9.73298 9.79221 9.68618 9.82382 9.6406 9.8384C9.68132 9.86271 9.72083 9.90283 9.76398 9.90769C10.3353 9.96907 10.6671 10.5513 10.3973 11.0807C10.4058 11.0029 10.4107 10.9549 10.4186 10.8837C10.1785 10.8588 10.0369 10.7093 9.93477 10.5015C9.91775 10.4668 9.82719 10.4516 9.77188 10.4541C9.43031 10.4686 9.09968 10.4377 8.78424 10.2869C8.68942 10.2413 8.64506 10.197 8.64566 10.0912C8.64566 9.99642 8.64019 9.89553 8.60859 9.80802C8.50831 9.52966 8.47002 9.49806 8.16734 9.51143C7.99899 9.51872 7.89627 9.46767 7.81908 9.31877C7.73399 9.15407 7.6404 8.98693 7.42767 8.95229C7.3049 9.13219 6.9372 9.13826 6.81199 8.94561C6.72083 8.80582 6.57557 8.83803 6.45462 8.79184C6.30511 8.73532 6.19327 8.76875 6.11487 8.90792C5.95867 9.18324 5.74169 9.23429 5.43659 9.15832C5.25 9.11092 5.18679 9.05075 5.19469 8.86781C5.20077 8.71709 5.17403 8.56454 5.16066 8.39862C5.01479 8.37006 4.86892 8.3421 4.72062 8.31354C4.75284 8.13181 4.96738 7.99811 4.81908 7.77628C4.66045 7.88081 4.50304 7.98413 4.34502 8.08806C4.23501 8.16038 3.91167 8.18591 3.8515 8.10386C3.76033 7.97988 3.69469 7.8486 3.74149 7.6687C3.84542 7.27427 4.08002 7.01962 4.46171 6.89624C4.5237 6.87558 4.59481 6.87801 4.66167 6.8774C4.90843 6.87497 5.15519 6.87619 5.4299 6.87619C5.35758 7.15819 5.51499 7.25178 5.74656 7.29675C5.74656 7.23112 5.7581 7.16791 5.74473 7.11017C5.68274 6.84337 5.83529 6.6896 6.02796 6.55529C6.10211 6.50363 6.17686 6.45258 6.25405 6.40639C6.38229 6.32981 6.50932 6.25688 6.49656 6.07638C6.49473 6.05328 6.51722 6.0235 6.53606 6.00466C6.76216 5.77918 6.94753 5.50204 7.26114 5.38292C7.46293 5.30574 7.54315 5.10882 7.69388 4.9818C7.80511 4.88881 7.89202 4.83958 8.00689 4.97268C8.05065 4.92406 8.08772 4.88395 8.13878 4.82743C8.07314 4.80859 8.01722 4.80373 7.97468 4.77759C7.93456 4.75328 7.87743 4.6998 7.88351 4.67124C7.89384 4.62262 7.94672 4.54968 7.98501 4.54786C8.06159 4.54482 8.15944 4.55941 8.21414 4.60681C8.33205 4.71013 8.53566 4.72107 8.64749 4.61289C8.67605 4.58554 8.73501 4.5904 8.77998 4.58007C8.77391 4.63112 8.78545 4.69494 8.75932 4.73019C8.64323 4.88395 8.64992 4.92042 8.83225 4.97694C8.95806 5.01584 9.08509 5.05048 9.21029 5.08694C9.26682 4.93561 9.23886 4.85235 9.10697 4.81284C9.05895 4.79887 9.01033 4.7782 8.969 4.74964C8.93679 4.72654 8.91552 4.68765 8.88938 4.65604C8.91916 4.63477 8.94712 4.59891 8.97934 4.59405C9.14161 4.56974 9.19631 4.4725 9.16896 4.32299C9.16106 4.27984 9.13371 4.21846 9.09968 4.20569C8.87662 4.12304 8.84076 3.95104 8.86021 3.74501C8.86386 3.70672 8.85596 3.66722 8.85292 3.61556C8.67058 3.68606 8.49554 3.75413 8.28586 3.83496C8.30166 3.67269 8.31139 3.56815 8.32293 3.44539C8.14425 3.40163 7.96981 3.32505 7.79842 3.32991C7.70543 3.33295 7.61669 3.47456 7.52796 3.55661C7.51945 3.56451 7.52431 3.58942 7.52674 3.60583C7.57111 3.89391 7.51884 4.1042 7.17058 4.15039C7.1019 4.1595 7.05693 4.31266 6.99068 4.39106C6.9378 4.45366 6.86912 4.5041 6.80774 4.55941C6.79011 4.54725 6.77249 4.5351 6.75486 4.52294V4.12C6.57496 4.0653 6.39931 4.03795 6.2498 3.95955C6.04437 3.85198 6.05166 3.62285 6.2498 3.51467C6.52755 3.36091 6.81017 3.21505 7.11041 3.0552C7.14202 3.17615 7.15964 3.24483 7.18882 3.35665C7.26053 3.31229 7.31524 3.27521 7.37358 3.243C7.43375 3.20958 7.49696 3.18101 7.55774 3.15062C7.53343 3.10747 7.50182 3.05338 7.49453 3.0394C7.641 2.94155 7.75891 2.83094 7.8987 2.77746C8.05733 2.71608 8.23541 2.68265 8.40498 2.68265C8.49311 2.68265 8.58063 2.78111 8.69672 2.85282C8.57273 2.9215 8.48096 2.97316 8.38857 3.02299C8.30105 3.07101 8.21353 3.1172 8.08347 3.18709C8.36669 3.25394 8.60312 3.30986 8.8438 3.36638C8.8669 3.31289 8.8906 3.27339 8.90032 3.23085C8.92464 3.12935 8.98663 3.09228 9.0857 3.1093C9.25284 3.13786 9.35434 3.07283 9.3829 2.88989C9.31909 2.86923 9.25162 2.84674 9.18355 2.82486C9.1793 2.81575 9.16896 2.80481 9.17018 2.7963C9.2109 2.58298 9.09421 2.49789 8.91187 2.42374C8.62439 2.30584 8.35028 2.15207 8.02512 2.25965C7.90357 2.29976 7.78262 2.34413 7.66835 2.40065C7.63797 2.41584 7.62156 2.4833 7.61973 2.52767C7.61609 2.60486 7.62885 2.68326 7.63797 2.80845C7.51641 2.76773 7.4064 2.75133 7.32739 2.69298C7.29943 2.67292 7.328 2.54104 7.36264 2.47723C7.3985 2.4128 7.47387 2.36904 7.57111 2.28031C7.33651 2.28031 7.14627 2.26876 6.95847 2.28821C6.90863 2.29307 6.86791 2.39032 6.80835 2.46325C6.90073 2.48756 6.95361 2.50093 7.00709 2.5143C7.0235 2.64679 6.99007 2.72276 6.84238 2.72154C6.74635 2.72033 6.63513 2.70635 6.59198 2.83884C6.58529 2.85768 6.52208 2.86437 6.48501 2.86558C6.3671 2.86862 6.24919 2.86619 6.11609 2.86619C6.10332 2.78171 6.09177 2.70088 6.07536 2.59331C6.36406 2.64801 6.57739 2.54833 6.72143 2.30766C6.63878 2.2171 6.5701 2.23716 6.48683 2.32164C6.31787 2.49364 6.0705 2.46933 5.92889 2.27727C5.80977 2.115 5.47062 2.0524 5.30288 2.16727C5.18254 2.24992 5.06767 2.3417 4.95219 2.4675C5.03059 2.4675 5.11021 2.46203 5.18801 2.46933C5.23845 2.47419 5.31503 2.48573 5.32901 2.51734C5.34907 2.56049 5.3205 2.62552 5.30835 2.70878C5.39222 2.70878 5.49068 2.71243 5.58914 2.70817C5.7028 2.70331 5.77147 2.74099 5.77208 2.87227H5.34907C5.03424 2.63646 4.72245 2.5538 4.36386 2.56049C7.10859 0.490461 11.3448 0.453388 14.2652 3.06432C14.174 3.13178 14.0932 3.19742 14.0063 3.25455C13.9048 3.3208 13.7844 3.36516 13.6963 3.44539C13.5814 3.54992 13.6398 3.65689 13.7765 3.7286C13.8671 3.77601 13.9194 3.89513 14.0014 3.99845C14.0792 3.9711 14.1813 3.93524 14.2944 3.89513C14.3132 4.02276 14.329 4.13276 14.3491 4.26951C14.2178 4.25492 14.1029 4.22939 13.988 4.23243C13.8112 4.2373 13.644 4.26829 13.5547 4.45974C13.483 4.6135 13.3712 4.7308 13.1803 4.72046C13.0132 4.71196 12.9506 4.79947 12.9524 4.95506C12.953 4.99396 12.9396 5.03285 12.9311 5.0833C12.9791 5.10457 13.0284 5.12584 13.0952 5.15501C13.0812 5.21761 13.066 5.28568 13.0539 5.33855C12.829 5.33855 12.6193 5.3343 12.4096 5.33977C12.2243 5.34524 12.2042 5.48685 12.1987 5.62603C12.1963 5.69774 12.2145 5.77128 12.2267 5.8436C12.2589 6.03626 12.3404 6.10919 12.5379 6.1177C12.6224 6.12135 12.7075 6.11831 12.7919 6.1177C12.9633 6.11649 13.1068 6.11102 13.184 5.89344C13.2429 5.72631 13.3967 5.59138 13.5152 5.44795C13.5377 5.4206 13.5997 5.39751 13.6295 5.40906C13.785 5.46983 13.8865 5.3969 13.9808 5.28933C13.9984 5.26927 14.0227 5.25468 14.0476 5.23463C14.1722 5.54519 14.5101 5.59564 14.7083 5.81018C14.6783 5.86366 14.581 5.90114 14.4165 5.92261C14.4524 6.063 14.5606 6.09278 14.6761 6.07577C14.7927 6.05814 14.887 6.00405 14.8596 5.85029C14.8511 5.80471 14.8876 5.75183 14.91 5.68133C14.7502 5.49961 14.363 5.50022 14.3807 5.11368C14.535 5.09849 14.6821 5.076 14.8268 5.22004C14.9799 5.37198 15.1264 5.49232 15.1325 5.74515C15.1349 5.8594 15.299 5.96941 15.3987 6.09278C15.5263 5.90985 15.4291 5.61022 15.7482 5.56282C15.7549 5.61934 15.7634 5.67768 15.7688 5.73664C15.7913 6.00162 15.9317 6.14323 16.1882 6.12317C16.3572 6.1098 16.4471 6.15295 16.4836 6.32738C16.5134 6.47324 16.5754 6.61303 16.638 6.80022C16.3219 6.7595 16.0168 6.90657 15.7658 6.66104C15.5859 6.48418 15.3835 6.50849 15.1635 6.56015C15.1586 6.63369 15.1538 6.70541 15.1477 6.79596C14.8237 6.69933 14.5077 6.60512 14.1801 6.50728V6.05814C13.8069 6.13168 13.435 6.04963 13.0843 6.23257C12.9566 6.29881 12.7761 6.29213 12.6242 6.27511C12.3926 6.24959 12.2522 6.41125 12.0784 6.50241C12.0498 6.51761 12.0438 6.60695 12.0529 6.658C12.0912 6.88226 11.9982 7.02509 11.8061 7.1357C11.6505 7.22504 11.5168 7.35267 11.3637 7.44687C11.2056 7.54472 11.1291 7.6529 11.2676 7.84374C11.295 7.8486 11.3479 7.85832 11.4111 7.86987C11.3965 7.97988 11.4329 8.10264 11.2895 8.15491C11.2804 8.15856 11.2719 8.16828 11.2664 8.17679C11.2056 8.28011 11.267 8.86173 11.3497 8.95533C11.5278 9.15893 11.7198 9.3528 11.8815 9.56917C11.9951 9.72111 12.1349 9.71381 12.2857 9.70287C12.4674 9.6895 12.6479 9.66884 12.8284 9.64696C12.8874 9.64027 12.9554 9.6348 13.0004 9.60259C13.2247 9.44397 13.3888 9.44822 13.5948 9.62143C13.6343 9.65486 13.6921 9.67188 13.7443 9.68342C13.81 9.69862 13.878 9.70105 13.9455 9.70895C14.0063 9.71564 14.0671 9.72232 14.1449 9.73083C14.1272 9.92045 14.1053 10.0985 14.0981 10.2766C14.095 10.3501 14.1084 10.434 14.1424 10.4984C14.2774 10.7519 14.4177 11.0035 14.5679 11.2484C14.6299 11.3493 14.6286 11.4289 14.5679 11.5255C14.5053 11.6252 14.456 11.734 14.4019 11.8391C14.3102 12.0178 14.3272 12.1801 14.4718 12.3108C14.5679 12.3983 14.6141 12.4931 14.597 12.6213C14.5575 12.921 14.6183 13.1878 14.8414 13.4096C14.8821 13.4503 14.8936 13.5311 14.8973 13.595C14.9058 13.7293 14.8997 13.8636 14.8997 14.004C14.9836 14.0095 15.0504 14.0137 15.1611 14.021C13.7109 15.7239 11.9173 16.7529 9.71171 16.9072C6.31787 17.1455 3.71353 15.7513 2.02877 12.8037C0.780997 10.6194 0.737844 8.30685 1.62824 5.97609Z" fill="#6C757D"/>
<path d="M12.839 4.11265C12.8931 4.16188 12.9387 4.22022 13.0219 4.31139C12.7563 4.32172 12.7594 4.46454 12.7654 4.64079C13.0073 4.59339 13.2802 4.7119 13.4346 4.41531C13.1222 4.28404 13.0468 4.00265 12.9842 3.70728C12.8487 3.72551 12.7071 3.70788 12.6591 3.86833C12.6129 4.0227 12.7624 4.04215 12.839 4.11265Z" fill="#6C757D"/>
<path d="M12.6602 4.33761C12.7094 4.30054 12.7167 4.20634 12.7428 4.13827C12.6784 4.11396 12.6115 4.06473 12.5489 4.06898C12.3514 4.08236 12.2128 4.28413 12.2371 4.51143C12.4341 4.57282 12.5398 4.42756 12.6602 4.33761Z" fill="#6C757D"/>
<path d="M8.06738 5.1751C8.0996 5.30698 8.18104 5.35925 8.28132 5.28875C8.36823 5.22797 8.43509 5.13924 8.51045 5.06266C8.50377 5.04686 8.49708 5.03045 8.49101 5.01465C8.35122 5.06752 8.21082 5.1204 8.06738 5.1751Z" fill="#6C757D"/>
</g>
<defs>
<clipPath id="clip0_742_10903">
<rect width="18" height="18" fill="white"/>
</clipPath>
</defs>
</svg>
