<svg width="18" height="18" viewBox="0 0 18 18" fill="none" xmlns="http://www.w3.org/2000/svg">
<g clip-path="url(#clip0_742_10909)">
<path d="M9 0C4.03875 0 0 4.03875 0 9C0 13.9613 4.03875 18 9 18C13.9613 18 18 13.9613 18 9C18 4.03875 13.9613 0 9 0ZM9 16.5009C4.86562 16.5009 1.49906 13.1372 1.49906 9C1.49906 4.86281 4.86562 1.49906 9 1.49906C13.1344 1.49906 16.5009 4.86281 16.5009 9C16.5009 13.1372 13.1372 16.5009 9 16.5009Z" fill="#6C757D"/>
<path d="M8.99996 8.24907C10.6537 8.24907 12.0009 6.90188 12.0009 5.24813C12.0009 3.59438 10.6537 2.24719 8.99996 2.24719C7.34621 2.24719 5.99902 3.59438 5.99902 5.24813C5.99902 6.90188 7.34621 8.24907 8.99996 8.24907ZM8.99996 3.74907C9.82684 3.74907 10.499 4.42126 10.499 5.24813C10.499 6.07501 9.82684 6.74719 8.99996 6.74719C8.17309 6.74719 7.5009 6.07501 7.5009 5.24813C7.5009 4.42126 8.17309 3.74907 8.99996 3.74907Z" fill="#6C757D"/>
<path d="M14.2817 9.19965C13.3282 8.24058 11.8798 8.00433 10.6732 8.60621C9.62978 9.12933 8.36416 9.12933 7.32072 8.6034C6.11978 7.99871 4.67416 8.23215 3.72353 9.17996C2.83759 10.0631 2.63509 11.3006 3.19197 12.4115C3.26791 12.5634 3.35791 12.7125 3.45916 12.8587C4.72759 14.67 6.80041 15.75 8.99978 15.75C11.1992 15.75 13.2804 14.6671 14.5348 12.8587C14.6332 12.7181 14.7204 12.5746 14.7935 12.4284C15.356 11.3259 15.1592 10.0884 14.2788 9.20246L14.2817 9.19965ZM13.4604 11.745C13.4154 11.8321 13.3648 11.9165 13.3057 12.0009C12.3298 13.41 10.721 14.2509 9.00259 14.2509C7.28415 14.2509 5.67822 13.41 4.69103 11.9981C4.63197 11.9137 4.58134 11.8265 4.53634 11.7393C4.16228 10.9912 4.58697 10.4428 4.78947 10.2431C5.06228 9.97308 5.47572 9.77059 5.93416 9.77059C6.16759 9.77059 6.40947 9.82121 6.65134 9.94496C8.11666 10.6818 9.88291 10.6846 11.351 9.95058C12.0738 9.59058 12.8135 9.84371 13.2213 10.2571C13.421 10.4568 13.8429 11.0025 13.4632 11.745H13.4604Z" fill="#6C757D"/>
</g>
<defs>
<clipPath id="clip0_742_10909">
<rect width="18" height="18" fill="white"/>
</clipPath>
</defs>
</svg>
