<svg width="25" height="24" viewBox="0 0 25 24" fill="none" xmlns="http://www.w3.org/2000/svg">
<g clip-path="url(#clip0_939_6039)">
<path d="M6.42657 9.32811L4.39664 5.87952C4.34223 5.78694 4.32736 5.67702 4.3553 5.57373C4.38325 5.47045 4.45172 5.38221 4.54577 5.32827C4.59223 5.30152 4.64364 5.28408 4.69703 5.27696C4.75041 5.26984 4.8047 5.27318 4.85676 5.28678C4.90882 5.30038 4.95761 5.32398 5.0003 5.3562C5.04299 5.38843 5.07874 5.42864 5.10547 5.47452L7.16073 8.96764C8.72989 8.26452 10.496 7.87311 12.3954 7.87311C14.2949 7.87311 16.061 8.26498 17.6301 8.96764L19.6854 5.47452C19.7401 5.38202 19.8301 5.31465 19.9355 5.28722C20.0409 5.2598 20.1532 5.27456 20.2475 5.32827C20.3418 5.38197 20.4105 5.47022 20.4384 5.5736C20.4664 5.67698 20.4514 5.78702 20.3966 5.87952L18.3714 9.32811C21.8702 11.1862 24.2414 14.6611 24.6328 18.7289H0.160902C0.552357 14.6611 2.92355 11.1862 6.42657 9.32811ZM18.0154 15.3586C18.2182 15.3586 18.4165 15.2996 18.5852 15.189C18.7539 15.0785 18.8854 14.9214 18.963 14.7376C19.0406 14.5538 19.0609 14.3515 19.0214 14.1564C18.9818 13.9613 18.8841 13.782 18.7407 13.6413C18.5972 13.5007 18.4144 13.4048 18.2155 13.366C18.0165 13.3272 17.8103 13.3471 17.6228 13.4233C17.4354 13.4994 17.2752 13.6283 17.1625 13.7938C17.0498 13.9592 16.9896 14.1537 16.9896 14.3526C16.9898 14.6194 17.0979 14.8752 17.2902 15.0638C17.4825 15.2524 17.7434 15.3585 18.0154 15.3586ZM6.78313 15.3586C6.98582 15.3577 7.1837 15.298 7.35182 15.187C7.51993 15.076 7.65073 14.9186 7.7277 14.7347C7.80468 14.5508 7.82438 14.3487 7.78431 14.1538C7.74425 13.959 7.64622 13.7801 7.50261 13.6399C7.35899 13.4996 7.17621 13.4042 6.97736 13.3657C6.77851 13.3273 6.5725 13.3474 6.38532 13.4237C6.19815 13.4999 6.0382 13.6289 5.92569 13.7942C5.81317 13.9595 5.75312 14.1539 5.75312 14.3526C5.75318 14.4849 5.77983 14.6159 5.83155 14.7381C5.88327 14.8602 5.95904 14.9712 6.05453 15.0646C6.15001 15.1581 6.26335 15.2321 6.38804 15.2826C6.51273 15.333 6.64634 15.3588 6.78122 15.3586H6.78313Z" fill="#4A4A4A"/>
</g>
<defs>
<clipPath id="clip0_939_6039">
<rect width="24.4719" height="24" fill="white" transform="matrix(-1 0 0 1 24.6328 0)"/>
</clipPath>
</defs>
</svg>
