<svg width="130" height="27" viewBox="0 0 130 27" fill="none" xmlns="http://www.w3.org/2000/svg">
<g clip-path="url(#clip0_742_6047)">
<path d="M42.8391 12.9076H48.2184L48.9332 9.08831H43.554L44.572 3.67212L40.0448 4.98937L39.265 9.08095L35.4165 9.84628L34.8389 12.9002H38.5502L36.8101 21.9223C36.4707 23.7032 36.7162 24.991 37.561 25.7931C38.3986 26.5879 39.6477 26.9926 41.3084 26.9926C41.9221 26.9926 42.5503 26.9338 43.2002 26.816C43.85 26.6983 44.5143 26.5364 45.193 26.3303L46.11 26.0507L45.8717 22.6877L45.2941 22.7539C44.9331 22.776 44.5648 22.8054 44.2038 22.8422C43.8428 22.879 43.3879 22.8937 42.8391 22.8937C42.1821 22.8937 41.72 22.7392 41.46 22.4227C41.2001 22.1137 41.1279 21.6427 41.2362 21.0172L42.8391 12.8929V12.9076Z" fill="#1C1C1C"/>
<path d="M62.9771 10.045C61.9012 9.22078 60.5077 8.81604 58.8036 8.81604C57.1935 8.81604 55.6844 9.13248 54.2909 9.7727C52.8973 10.4129 51.7059 11.3549 50.7312 12.6206C49.7564 13.879 49.0705 15.4612 48.6878 17.3598C48.3268 19.3026 48.4351 20.9951 49.0127 22.4448C49.5903 23.8945 50.5073 25.0131 51.7709 25.8079C53.0345 26.6026 54.5002 27.0074 56.1826 27.0074C57.0924 27.0074 58.0455 26.897 59.0419 26.6762C60.0383 26.4555 61.0636 26.1243 62.1034 25.6901L63.367 25.1382L62.6521 22.2241L61.2586 22.6067C60.551 22.7907 59.865 22.9379 59.2008 23.0409C58.5293 23.1439 57.9011 23.1954 57.309 23.1954C56.3559 23.1954 55.5472 23.0556 54.8757 22.776C54.2042 22.4963 53.6988 22.0622 53.3594 21.4587C53.0201 20.8553 52.8468 20.0679 52.8468 19.0965H65.071L65.3743 17.6762C65.6703 16.1014 65.6125 14.6443 65.201 13.305C64.7894 11.9657 64.0457 10.8839 62.9698 10.0597L62.9771 10.045ZM53.4244 15.8954C53.8576 14.7842 54.4714 13.9452 55.2656 13.3786C56.0599 12.812 57.013 12.525 58.1249 12.525C59.2369 12.525 60.06 12.834 60.6593 13.4448C61.2586 14.0556 61.5763 14.8725 61.598 15.8954H53.4244Z" fill="#1C1C1C"/>
<path d="M75.5981 0L71.0709 1.1112L67.1213 22.0401C66.9625 22.9452 66.9913 23.7694 67.208 24.52C67.4246 25.2706 67.865 25.8741 68.5365 26.323C69.208 26.7719 70.1178 27 71.2803 27C71.663 27 72.0745 26.9632 72.5078 26.897C72.941 26.8307 73.3598 26.7204 73.7714 26.5879L74.6234 23.1881C74.3273 23.2322 74.0313 23.2617 73.7353 23.2764C73.4392 23.2911 73.1215 23.2911 72.7822 23.2911C72.2406 23.2911 71.8507 23.166 71.6269 22.9084C71.403 22.6509 71.3525 22.224 71.4897 21.6206L75.5981 0Z" fill="#1C1C1C"/>
<path d="M92.4143 11.8847C91.8006 10.9501 90.9702 10.1995 89.9305 9.6476C88.8835 9.09568 87.6488 8.81604 86.2191 8.81604C84.3129 8.81604 82.6883 9.16927 81.3526 9.87573C80.0096 10.5822 78.9337 11.5609 78.1178 12.812C77.3019 14.063 76.7315 15.498 76.4138 17.1169C76.0744 18.942 76.161 20.6051 76.6881 22.099C77.208 23.5928 78.0817 24.785 79.3092 25.6754C80.5366 26.5658 82.0241 27.0147 83.7714 27.0147C85.6559 27.0147 87.2661 26.6689 88.6091 25.9771C89.9449 25.2854 91.028 24.314 91.8439 23.063C92.6598 21.812 93.2302 20.3696 93.5479 18.7212C93.7934 17.4702 93.8223 16.2559 93.6346 15.0785C93.4396 13.9011 93.0353 12.8414 92.4287 11.8994L92.4143 11.8847ZM89.2156 18.39C88.9413 19.9428 88.3708 21.0981 87.4972 21.8635C86.6235 22.6288 85.4899 23.0115 84.1108 23.0115C83.3382 23.0115 82.6522 22.8054 82.0529 22.4007C81.4536 21.9959 81.0132 21.3778 80.7388 20.5462C80.4644 19.7146 80.4572 18.6697 80.7027 17.4187C80.9554 15.9837 81.4825 14.8577 82.284 14.0335C83.0855 13.2093 84.2335 12.8046 85.7065 12.8046C86.7029 12.8046 87.4972 13.0622 88.0748 13.5846C88.6524 14.1071 89.0423 14.7915 89.2301 15.6304C89.425 16.4767 89.4178 17.3966 89.2156 18.39Z" fill="#1C1C1C"/>
<path d="M104.235 19.8177H103.166L107.195 26.7204H111.794L106.487 17.4775L104.235 19.8177Z" fill="#1C1C1C"/>
<path d="M105.7 16.1014L106.487 17.4775L114.553 9.09567H109.376L103.079 15.9984H101.375L104.437 0L99.9457 1.1112L95.043 26.7204H99.3319L100.66 19.8177H103.166L102.942 19.435L105.7 16.1014Z" fill="#1C1C1C"/>
<path d="M106.488 17.4776L104.235 19.8177H103.166L102.942 19.435L105.701 16.1014L106.488 17.4776Z" fill="#1C1C1C"/>
<path d="M127.679 23.4751C127.376 23.2322 127.289 22.7318 127.426 21.9665L128.69 15.027C128.871 14.0998 128.871 13.2608 128.69 12.5102C128.51 11.7596 128.17 11.1047 127.665 10.5528C127.167 10.0008 126.509 9.56665 125.708 9.26494C124.899 8.96322 123.968 8.81604 122.899 8.81604C121.831 8.81604 120.711 8.94114 119.664 9.18399C118.682 9.41212 117.722 9.67704 116.783 9.97876L116.119 13.4375L117.036 13.2314C117.693 13.0916 118.401 12.9738 119.145 12.8855C119.896 12.7972 120.69 12.7457 121.527 12.7457C122.733 12.7457 123.556 12.9886 123.997 13.4743C124.437 13.9599 124.596 14.5707 124.459 15.314L124.401 15.601L118.971 16.5282C117.542 16.7564 116.401 17.0949 115.549 17.5364C114.697 17.9779 114.061 18.5151 113.643 19.148C113.224 19.7882 112.921 20.5168 112.74 21.3483C112.516 22.5037 112.61 23.5045 113.029 24.3508C113.448 25.1971 114.069 25.852 114.885 26.3083C115.7 26.7719 116.596 27 117.578 27C118.372 27 119.166 26.8528 119.96 26.5511C120.755 26.2494 121.527 25.8005 122.278 25.1971L123.441 24.2551C123.592 24.8438 123.831 25.381 124.184 25.8594C124.755 26.6247 125.759 27.0074 127.217 27.0074C127.419 27.0074 127.665 26.9927 127.946 26.9559C128.228 26.9191 128.517 26.8676 128.813 26.8013L129.593 24.027C128.618 23.9093 127.975 23.7326 127.665 23.4898L127.679 23.4751ZM123.224 21.7089L122.322 22.2388C121.686 22.6067 121.058 22.8864 120.451 23.0703C119.838 23.2543 119.303 23.35 118.849 23.35C118.213 23.35 117.7 23.1954 117.318 22.879C116.928 22.5699 116.798 22.0548 116.906 21.3336C116.971 21.0319 117.08 20.767 117.231 20.5389C117.383 20.3107 117.585 20.1047 117.845 19.9281C118.105 19.7514 118.43 19.619 118.812 19.5307L123.917 18.1472L123.231 21.7089H123.224Z" fill="#1C1C1C"/>
<path d="M8.96568 5.37546C10.0482 4.48397 10.3466 3.03093 9.63235 2.12999C8.91804 1.22905 7.46146 1.22139 6.37897 2.11287C5.29648 3.00436 4.998 4.4574 5.7123 5.35834C6.42661 6.25928 7.8832 6.26694 8.96568 5.37546Z" fill="url(#paint0_radial_742_6047)"/>
<path d="M7.38846 15.6801C8.80284 14.5153 9.19359 12.6177 8.26123 11.4418C7.32888 10.2658 5.42649 10.2568 4.01212 11.4216C2.59775 12.5864 2.20699 14.4839 3.13935 15.6599C4.0717 16.8359 5.97409 16.8449 7.38846 15.6801Z" fill="url(#paint1_radial_742_6047)"/>
<path d="M19.2039 5.87602C20.6183 4.71122 21.009 2.81365 20.0767 1.63769C19.1443 0.461731 17.2419 0.452689 15.8275 1.61749C14.4132 2.7823 14.0224 4.67987 14.9548 5.85583C15.8871 7.03179 17.7895 7.04083 19.2039 5.87602Z" fill="url(#paint2_radial_742_6047)"/>
<path d="M5.78412 25.943C7.50556 24.5254 7.98067 22.2152 6.8453 20.7832C5.70994 19.3512 3.39404 19.3396 1.6726 20.7573C-0.048835 22.175 -0.523941 24.4851 0.611424 25.9171C1.74679 27.3491 4.06268 27.3607 5.78412 25.943Z" fill="url(#paint3_radial_742_6047)"/>
<path d="M26.0084 18.4488C26.1889 17.5658 26.716 16.7342 27.4669 16.1087C28.2539 15.4537 28.8388 14.5486 29.0409 13.5478C29.2431 12.547 29.0193 11.6418 28.4922 10.9869C27.994 10.3614 27.799 9.52979 27.9723 8.64672C28.1456 7.78572 28.6366 6.95416 29.3731 6.35072C30.319 5.58539 30.9905 4.45947 31.0699 3.23788C31.1782 1.61156 30.0951 0.301662 28.4994 0.117688C26.3333 -0.132516 24.1094 1.58212 23.6761 3.73829C23.474 4.73911 23.6978 5.64426 24.2249 6.29921C24.7231 6.92472 24.9181 7.75628 24.7448 8.63936C24.5715 9.52243 24.0372 10.354 23.2862 10.9795C22.4992 11.6344 21.9144 12.5396 21.7122 13.5404C21.51 14.5412 21.7338 15.4464 22.2609 16.1013C22.7591 16.7268 22.9541 17.5584 22.7808 18.4415C22.6075 19.3025 22.1165 20.134 21.38 20.7375C20.4342 21.5028 19.7627 22.6287 19.6832 23.8503C19.5749 25.4766 20.658 26.7865 22.2537 26.9705C24.4199 27.2207 26.6438 25.5061 27.077 23.3499C27.2792 22.3491 27.0553 21.4439 26.5282 20.789C26.03 20.1635 25.8351 19.3319 26.0084 18.4488Z" fill="url(#paint4_radial_742_6047)"/>
<path d="M16.1734 18.4488C16.3467 17.5878 16.8377 16.7563 17.5742 16.1528C18.52 15.3875 19.1915 14.2616 19.271 13.04C19.3793 11.4137 18.2962 10.1038 16.7005 9.91981C14.5343 9.66961 12.3104 11.3842 11.8772 13.5404C11.675 14.5412 11.8989 15.4464 12.426 16.1013C12.9242 16.7268 13.1191 17.5584 12.9458 18.4415C12.7726 19.3246 12.2816 20.134 11.5451 20.7375C10.5992 21.5028 9.92769 22.6287 9.84827 23.8503C9.73996 25.4766 10.823 26.7865 12.4188 26.9705C14.5849 27.2207 16.8088 25.5061 17.242 23.3499C17.4442 22.3491 17.2204 21.4439 16.6933 20.789C16.1951 20.1635 16.0001 19.3319 16.1734 18.4488Z" fill="url(#paint5_radial_742_6047)"/>
</g>
<defs>
<radialGradient id="paint0_radial_742_6047" cx="0" cy="0" r="1" gradientUnits="userSpaceOnUse" gradientTransform="translate(16.0906 -0.0987227) scale(13.8705 13.8538)">
<stop stop-color="#939598"/>
<stop offset="1" stop-color="#6E6F72"/>
</radialGradient>
<radialGradient id="paint1_radial_742_6047" cx="0" cy="0" r="1" gradientUnits="userSpaceOnUse" gradientTransform="translate(18.8744 0.480403) scale(18.0513 18.0368)">
<stop stop-color="#939598"/>
<stop offset="1" stop-color="#6E6F72"/>
</radialGradient>
<radialGradient id="paint2_radial_742_6047" cx="0" cy="0" r="1" gradientUnits="userSpaceOnUse" gradientTransform="translate(20.629 -1.26289) scale(18.0513 18.0368)">
<stop stop-color="#939598"/>
<stop offset="1" stop-color="#6E6F72"/>
</radialGradient>
<radialGradient id="paint3_radial_742_6047" cx="0" cy="0" r="1" gradientUnits="userSpaceOnUse" gradientTransform="translate(29.9746 4.642) scale(30.4169 30.3925)">
<stop stop-color="#EF4F78"/>
<stop offset="1" stop-color="#EE1F44"/>
</radialGradient>
<radialGradient id="paint4_radial_742_6047" cx="0" cy="0" r="1" gradientUnits="userSpaceOnUse" gradientTransform="translate(29.9838 0.367893) scale(30.4169 30.3925)">
<stop stop-color="#EF4F78"/>
<stop offset="1" stop-color="#EE1F44"/>
</radialGradient>
<radialGradient id="paint5_radial_742_6047" cx="0" cy="0" r="1" gradientUnits="userSpaceOnUse" gradientTransform="translate(29.9831 4.64344) scale(30.4169 30.3925)">
<stop stop-color="#EF4F78"/>
<stop offset="1" stop-color="#EE1F44"/>
</radialGradient>
<clipPath id="clip0_742_6047">
<rect width="129.6" height="27" fill="white"/>
</clipPath>
</defs>
</svg>
