<svg width="19" height="16" viewBox="0 0 19 16" fill="none" xmlns="http://www.w3.org/2000/svg">
<path fill-rule="evenodd" clip-rule="evenodd" d="M0.928711 0C0.777696 0 0.642317 0.0669494 0.550637 0.172787C0.529962 0.196654 0.51151 0.222499 0.495602 0.25C0.453059 0.323543 0.428711 0.408928 0.428711 0.499999V0.5V1.74039V13.9423V15.1827C0.428711 15.4588 0.652569 15.6827 0.928711 15.6827H2.20675H5.62381C5.89995 15.6827 6.12381 15.4588 6.12381 15.1827V13.9423C6.12381 13.6662 5.89995 13.4423 5.62381 13.4423H2.70675V2.24039H5.62381C5.89995 2.24039 6.12381 2.01653 6.12381 1.74039V0.5C6.12381 0.223858 5.89995 0 5.62381 0H2.20675H0.928711ZM18.5466 8.27677L13.4775 13.2621C13.233 13.5025 12.8367 13.5025 12.5922 13.2621L12.001 12.6806C11.7569 12.4406 11.7565 12.0516 11.9999 11.811L14.8837 8.9616H6.62328C6.34714 8.9616 6.12328 8.73774 6.12328 8.4616V7.22121C6.12328 6.94507 6.34714 6.72121 6.62328 6.72121H14.8836L11.9999 3.87189C11.7565 3.6313 11.7569 3.24229 12.001 3.00226L12.5922 2.42081C12.8367 2.18037 13.2331 2.18037 13.4775 2.42081L18.5466 7.40609C18.7911 7.64652 18.7911 8.03633 18.5466 8.27677Z" fill="#F2222E"/>
</svg>
