<svg width="18" height="14" viewBox="0 0 18 14" fill="none" xmlns="http://www.w3.org/2000/svg">
<g clip-path="url(#clip0_742_12207)">
<path d="M6.74996 7.12408C6.33652 7.12408 5.99902 7.45877 5.99902 7.87502V10.125C5.99902 10.5385 6.33371 10.876 6.74996 10.876C7.16621 10.876 7.5009 10.5413 7.5009 10.125V7.87502C7.5009 7.46158 7.16621 7.12408 6.74996 7.12408Z" fill="white"/>
<path d="M11.25 7.12408C10.8365 7.12408 10.499 7.45877 10.499 7.87502V10.125C10.499 10.5385 10.8337 10.876 11.25 10.876C11.6662 10.876 12.0009 10.5413 12.0009 10.125V7.87502C12.0009 7.46158 11.6662 7.12408 11.25 7.12408Z" fill="white"/>
<path d="M8.99996 7.49811C8.58652 7.49811 8.24902 7.8328 8.24902 8.24905V9.74811C8.24902 10.1615 8.58371 10.499 8.99996 10.499C9.41621 10.499 9.7509 10.1644 9.7509 9.74811V8.24905C9.7509 7.83561 9.41621 7.49811 8.99996 7.49811Z" fill="white"/>
<path d="M13.5 7.49811C13.0865 7.49811 12.749 7.8328 12.749 8.24905V9.74811C12.749 10.1615 13.0837 10.499 13.5 10.499C13.9162 10.499 14.2509 10.1644 14.2509 9.74811V8.24905C14.2509 7.83561 13.9162 7.49811 13.5 7.49811Z" fill="white"/>
<path d="M4.49996 7.49811C4.08652 7.49811 3.74902 7.8328 3.74902 8.24905V9.74811C3.74902 10.1615 4.08371 10.499 4.49996 10.499C4.91621 10.499 5.2509 10.1644 5.2509 9.74811V8.24905C5.2509 7.83561 4.91621 7.49811 4.49996 7.49811Z" fill="white"/>
<path d="M14.6925 0.348894C10.9209 -0.117981 7.04813 -0.115169 3.2625 0.354519C1.40344 0.585144 0 2.18546 0 4.07264V9.42202C0 11.3148 1.42031 12.9151 3.3075 13.1486C5.18625 13.382 7.10437 13.4973 9 13.4973C10.8956 13.4973 12.8391 13.3792 14.7375 13.143C16.5966 12.9123 18 11.312 18 9.42202V4.07546C18 2.18264 16.5797 0.582331 14.6925 0.348894ZM16.4981 9.42483C16.4981 10.5583 15.66 11.5173 14.5491 11.6551C10.8872 12.108 7.13812 12.1108 3.4875 11.6608C2.35406 11.5201 1.49625 10.5583 1.49625 9.42202V4.07264C1.49625 2.93921 2.33437 1.98014 3.44531 1.84233C5.28188 1.61452 7.14937 1.49921 8.99719 1.49921C10.845 1.49921 12.6872 1.61171 14.5069 1.83671C15.6403 1.97733 16.4981 2.93921 16.4981 4.07546V9.42483Z" fill="white"/>
<path d="M13.3121 3.11626L10.2071 5.09064C9.47299 5.55751 8.52518 5.55751 7.79111 5.09064L4.68611 3.11626C4.33455 2.89407 3.8733 2.99814 3.65111 3.34689C3.42893 3.69564 3.53299 4.1597 3.88174 4.38189L6.98674 6.35626C7.59705 6.74439 8.30018 6.94126 9.00049 6.94126C9.7008 6.94126 10.4011 6.7472 11.0142 6.35626L14.1192 4.38189C14.468 4.1597 14.5721 3.69564 14.3499 3.34689C14.1277 2.99814 13.6664 2.89407 13.3149 3.11626H13.3121Z" fill="white"/>
</g>
<defs>
<clipPath id="clip0_742_12207">
<rect width="18" height="13.5" fill="white"/>
</clipPath>
</defs>
</svg>
