<svg width="28" height="28" viewBox="0 0 28 28" fill="none" xmlns="http://www.w3.org/2000/svg">
<g clip-path="url(#clip0_1195_7952)">
<path d="M24.2101 7.62991C23.9334 5.68991 22.3734 4.14324 20.4167 3.86658C16.1667 3.26658 11.8001 3.26658 7.54674 3.86991C5.60674 4.14658 4.06008 5.70658 3.78341 7.66324C3.48341 9.78324 3.33008 11.9399 3.33008 14.0799C3.33008 16.2199 3.48341 18.3999 3.78674 20.5332C4.06341 22.4732 5.62341 24.0199 7.58008 24.2966C9.70008 24.5966 11.8567 24.7499 13.9967 24.7499C16.1367 24.7499 18.3167 24.5966 20.4501 24.2932C22.3901 24.0166 23.9367 22.4566 24.2134 20.4999C24.5134 18.3799 24.6667 16.2232 24.6667 14.0832C24.6667 11.9432 24.5134 9.76324 24.2101 7.62991ZM22.4534 20.2499C22.2867 21.4299 21.3601 22.3666 20.2001 22.5332C16.1134 23.1132 11.9167 23.1166 7.83008 22.5366C6.65008 22.3699 5.71341 21.4432 5.54674 20.2832C5.25674 18.2332 5.10674 16.1499 5.10674 14.0799C5.10674 12.0099 5.25341 9.94991 5.54008 7.91324C5.70675 6.73324 6.63341 5.79658 7.79341 5.62991C9.84341 5.33991 11.9267 5.18991 13.9967 5.18991C16.0667 5.18991 18.1267 5.33658 20.1634 5.62324C21.3434 5.78991 22.2801 6.71658 22.4467 7.87658C22.7367 9.92658 22.8867 12.0099 22.8867 14.0799C22.8867 16.1499 22.7401 18.2099 22.4534 20.2466V20.2499Z" fill="#4A4A4A"/>
<path d="M28.0003 13.9167C28.0003 13.2723 27.478 12.75 26.8337 12.75C26.1893 12.75 25.667 13.2723 25.667 13.9167C25.667 14.561 26.1893 15.0833 26.8337 15.0833C27.478 15.0833 28.0003 14.561 28.0003 13.9167Z" fill="#4A4A4A"/>
<path d="M27.667 6.16675H26.0003C25.8162 6.16675 25.667 6.31599 25.667 6.50008V7.00008C25.667 7.18418 25.8162 7.33341 26.0003 7.33341H27.667C27.8511 7.33341 28.0003 7.18418 28.0003 7.00008V6.50008C28.0003 6.31599 27.8511 6.16675 27.667 6.16675Z" fill="#4A4A4A"/>
<path d="M27.667 9.75H26.0003C25.8162 9.75 25.667 9.89924 25.667 10.0833V10.5833C25.667 10.7674 25.8162 10.9167 26.0003 10.9167H27.667C27.8511 10.9167 28.0003 10.7674 28.0003 10.5833V10.0833C28.0003 9.89924 27.8511 9.75 27.667 9.75Z" fill="#4A4A4A"/>
<path d="M27.667 16.9167H26.0003C25.8162 16.9167 25.667 17.066 25.667 17.2501V17.7501C25.667 17.9342 25.8162 18.0834 26.0003 18.0834H27.667C27.8511 18.0834 28.0003 17.9342 28.0003 17.7501V17.2501C28.0003 17.066 27.8511 16.9167 27.667 16.9167Z" fill="#4A4A4A"/>
<path d="M27.667 20.5H26.0003C25.8162 20.5 25.667 20.6492 25.667 20.8333V21.3333C25.667 21.5174 25.8162 21.6667 26.0003 21.6667H27.667C27.8511 21.6667 28.0003 21.5174 28.0003 21.3333V20.8333C28.0003 20.6492 27.8511 20.5 27.667 20.5Z" fill="#4A4A4A"/>
<path d="M2.33333 14.0834C2.33333 13.4391 1.811 12.9167 1.16667 12.9167C0.522334 12.9167 0 13.4391 0 14.0834C0 14.7277 0.522334 15.2501 1.16667 15.2501C1.811 15.2501 2.33333 14.7277 2.33333 14.0834Z" fill="#4A4A4A"/>
<path d="M2 6.16675H0.333333C0.149238 6.16675 0 6.31599 0 6.50008V7.00008C0 7.18418 0.149238 7.33341 0.333333 7.33341H2C2.18409 7.33341 2.33333 7.18418 2.33333 7.00008V6.50008C2.33333 6.31599 2.18409 6.16675 2 6.16675Z" fill="#4A4A4A"/>
<path d="M2 9.75H0.333333C0.149238 9.75 0 9.89924 0 10.0833V10.5833C0 10.7674 0.149238 10.9167 0.333333 10.9167H2C2.18409 10.9167 2.33333 10.7674 2.33333 10.5833V10.0833C2.33333 9.89924 2.18409 9.75 2 9.75Z" fill="#4A4A4A"/>
<path d="M2 16.9167H0.333333C0.149238 16.9167 0 17.066 0 17.2501V17.7501C0 17.9342 0.149238 18.0834 0.333333 18.0834H2C2.18409 18.0834 2.33333 17.9342 2.33333 17.7501V17.2501C2.33333 17.066 2.18409 16.9167 2 16.9167Z" fill="#4A4A4A"/>
<path d="M2 20.5H0.333333C0.149238 20.5 0 20.6492 0 20.8333V21.3333C0 21.5174 0.149238 21.6667 0.333333 21.6667H2C2.18409 21.6667 2.33333 21.5174 2.33333 21.3333V20.8333C2.33333 20.6492 2.18409 20.5 2 20.5Z" fill="#4A4A4A"/>
<path d="M14.9993 1.16667C14.9993 0.522334 14.477 0 13.8327 0C13.1884 0 12.666 0.522334 12.666 1.16667C12.666 1.811 13.1884 2.33333 13.8327 2.33333C14.477 2.33333 14.9993 1.811 14.9993 1.16667Z" fill="#4A4A4A"/>
<path d="M21.7529 2V0.333333C21.7529 0.149238 21.6037 0 21.4196 0L20.9196 0C20.7355 0 20.5863 0.149238 20.5863 0.333333V2C20.5863 2.1841 20.7355 2.33333 20.9196 2.33333H21.4196C21.6037 2.33333 21.7529 2.1841 21.7529 2Z" fill="#4A4A4A"/>
<path d="M18.1699 2V0.333333C18.1699 0.149238 18.0207 0 17.8366 0L17.3366 0C17.1525 0 17.0033 0.149238 17.0033 0.333333V2C17.0033 2.18409 17.1525 2.33333 17.3366 2.33333H17.8366C18.0207 2.33333 18.1699 2.18409 18.1699 2Z" fill="#4A4A4A"/>
<path d="M11.0029 2V0.333333C11.0029 0.149238 10.8537 0 10.6696 0L10.1696 0C9.9855 0 9.83626 0.149238 9.83626 0.333333V2C9.83626 2.18409 9.9855 2.33333 10.1696 2.33333H10.6696C10.8537 2.33333 11.0029 2.18409 11.0029 2Z" fill="#4A4A4A"/>
<path d="M7.41992 2V0.333333C7.41992 0.149238 7.27068 0 7.08659 0L6.58659 0C6.40249 0 6.25326 0.149238 6.25326 0.333333V2C6.25326 2.18409 6.40249 2.33333 6.58659 2.33333H7.08659C7.27068 2.33333 7.41992 2.18409 7.41992 2Z" fill="#4A4A4A"/>
<path d="M14.9993 26.8334C14.9993 26.1891 14.477 25.6667 13.8327 25.6667C13.1884 25.6667 12.666 26.1891 12.666 26.8334C12.666 27.4777 13.1884 28.0001 13.8327 28.0001C14.477 28.0001 14.9993 27.4777 14.9993 26.8334Z" fill="#4A4A4A"/>
<path d="M21.7529 27.6667V26.0001C21.7529 25.816 21.6037 25.6667 21.4196 25.6667H20.9196C20.7355 25.6667 20.5863 25.816 20.5863 26.0001V27.6667C20.5863 27.8508 20.7355 28.0001 20.9196 28.0001H21.4196C21.6037 28.0001 21.7529 27.8508 21.7529 27.6667Z" fill="#4A4A4A"/>
<path d="M18.1699 27.6667V26.0001C18.1699 25.816 18.0207 25.6667 17.8366 25.6667H17.3366C17.1525 25.6667 17.0033 25.816 17.0033 26.0001V27.6667C17.0033 27.8508 17.1525 28.0001 17.3366 28.0001H17.8366C18.0207 28.0001 18.1699 27.8508 18.1699 27.6667Z" fill="#4A4A4A"/>
<path d="M11.0029 27.6667V26.0001C11.0029 25.816 10.8537 25.6667 10.6696 25.6667H10.1696C9.9855 25.6667 9.83626 25.816 9.83626 26.0001V27.6667C9.83626 27.8508 9.9855 28.0001 10.1696 28.0001H10.6696C10.8537 28.0001 11.0029 27.8508 11.0029 27.6667Z" fill="#4A4A4A"/>
<path d="M7.41992 27.6667V26.0001C7.41992 25.816 7.27068 25.6667 7.08659 25.6667H6.58659C6.40249 25.6667 6.25326 25.816 6.25326 26.0001V27.6667C6.25326 27.8508 6.40249 28.0001 6.58659 28.0001H7.08659C7.27068 28.0001 7.41992 27.8508 7.41992 27.6667Z" fill="#4A4A4A"/>
</g>
<defs>
<clipPath id="clip0_1195_7952">
<rect width="28" height="28" fill="white"/>
</clipPath>
</defs>
</svg>
