<svg width="17" height="16" viewBox="0 0 17 16" fill="none" xmlns="http://www.w3.org/2000/svg">
<path d="M8.70121 15.9923C13.1598 15.9923 16.84 12.3731 16.84 7.99613C16.84 3.61914 13.152 0 8.69335 0C4.24259 0 0.570312 3.61914 0.570312 7.99613C0.570312 12.3731 4.25045 15.9923 8.70121 15.9923ZM8.70121 14.3992C5.09185 14.3992 2.20593 11.5457 2.20593 7.99613C2.20593 4.44659 5.09185 1.60077 8.69335 1.60077C12.3027 1.60077 15.2044 4.44659 15.2122 7.99613C15.2201 11.5457 12.3106 14.3992 8.70121 14.3992ZM11.7523 8.42919C12.0825 8.2436 12.0747 7.77187 11.7523 7.58627L7.22287 4.95698C6.87687 4.76365 6.42079 4.92605 6.42079 5.30498V10.7028C6.42079 11.0817 6.85328 11.2673 7.22287 11.0507L11.7523 8.42919Z" fill="white"/>
</svg>
