<svg width="16" height="18" viewBox="0 0 16 18" fill="none" xmlns="http://www.w3.org/2000/svg">
<path d="M15.179 10.4203C15.013 8.87906 14.729 7.33781 14.3408 5.84156C13.964 4.39031 12.7855 3.32156 11.3624 3.06281C11.0362 1.32469 9.51459 0 7.68084 0C5.84709 0 4.32553 1.32188 3.99928 3.06281C2.57616 3.31875 1.39772 4.3875 1.02084 5.84156C0.632719 7.34063 0.351469 8.88188 0.182719 10.4203C0.047719 11.7113 -0.014156 13.0275 0.00271901 14.3325C0.030844 16.3547 1.71553 18 3.75459 18H11.6127C13.6518 18 15.3337 16.3547 15.3646 14.3325C15.3815 13.0275 15.3196 11.7113 15.1818 10.4203H15.179ZM7.68366 1.49906C8.65959 1.49906 9.48366 2.12906 9.79585 2.99813H5.57147C5.88084 2.12625 6.70772 1.49906 7.68366 1.49906ZM11.6127 16.4981H3.75459C2.53116 16.4981 1.52147 15.5166 1.50459 14.31C1.48772 13.0669 1.54678 11.8097 1.67897 10.5778C1.83928 9.10969 2.10647 7.64156 2.47772 6.21281C2.73928 5.20312 3.63928 4.49719 4.66584 4.49719H10.7043C11.7308 4.49719 12.6308 5.20312 12.8924 6.21281C13.2637 7.64156 13.5308 9.10969 13.6912 10.5778C13.8233 11.8097 13.8824 13.0641 13.8655 14.3072C13.8487 15.5138 12.839 16.4953 11.6155 16.4953L11.6127 16.4981Z" fill="white"/>
<path d="M10.6816 6.37598C9.6466 6.37598 8.80566 7.21691 8.80566 8.25191C8.80566 9.28691 9.6466 10.1279 10.6816 10.1279C11.7166 10.1279 12.5575 9.28691 12.5575 8.25191C12.5575 7.21691 11.7166 6.37598 10.6816 6.37598ZM10.6816 8.62598C10.4763 8.62598 10.3075 8.45723 10.3075 8.25191C10.3075 8.0466 10.4763 7.87785 10.6816 7.87785C10.8869 7.87785 11.0557 8.0466 11.0557 8.25191C11.0557 8.45723 10.8869 8.62598 10.6816 8.62598Z" fill="white"/>
<path d="M4.68258 6.37598C3.64758 6.37598 2.80664 7.21691 2.80664 8.25191C2.80664 9.28691 3.64758 10.1279 4.68258 10.1279C5.71758 10.1279 6.55852 9.28691 6.55852 8.25191C6.55852 7.21691 5.71758 6.37598 4.68258 6.37598ZM4.68258 8.62598C4.47727 8.62598 4.30852 8.45723 4.30852 8.25191C4.30852 8.0466 4.47727 7.87785 4.68258 7.87785C4.88789 7.87785 5.05664 8.0466 5.05664 8.25191C5.05664 8.45723 4.88789 8.62598 4.68258 8.62598Z" fill="white"/>
</svg>
