<svg width="26" height="26" viewBox="0 0 26 26" fill="none" xmlns="http://www.w3.org/2000/svg">
<g clip-path="url(#clip0_1195_7942)">
<path d="M13 0C5.83375 0 0 5.83375 0 13C0 20.1663 5.83375 26 13 26C20.1663 26 26 20.1663 26 13C26 5.83375 20.1663 0 13 0ZM13 23.8347C7.02813 23.8347 2.16531 18.9759 2.16531 13C2.16531 7.02406 7.02813 2.16531 13 2.16531C18.9719 2.16531 23.8347 7.02406 23.8347 13C23.8347 18.9759 18.9759 23.8347 13 23.8347Z" fill="#4A4A4A"/>
<path d="M12.9997 11.9152C15.3885 11.9152 17.3344 9.96929 17.3344 7.58054C17.3344 5.19179 15.3885 3.24585 12.9997 3.24585C10.611 3.24585 8.66504 5.19179 8.66504 7.58054C8.66504 9.96929 10.611 11.9152 12.9997 11.9152ZM12.9997 5.41522C14.1941 5.41522 15.165 6.38616 15.165 7.58054C15.165 8.77491 14.1941 9.74585 12.9997 9.74585C11.8054 9.74585 10.8344 8.77491 10.8344 7.58054C10.8344 6.38616 11.8054 5.41522 12.9997 5.41522Z" fill="#4A4A4A"/>
<path d="M20.6295 13.2884C19.2523 11.9031 17.1601 11.5619 15.4173 12.4312C13.9101 13.1869 12.082 13.1869 10.5748 12.4272C8.84012 11.5537 6.75199 11.8909 5.37887 13.26C4.09918 14.5356 3.80668 16.3231 4.61105 17.9278C4.72074 18.1472 4.85074 18.3625 4.99699 18.5737C6.82918 21.19 9.82324 22.75 13.0001 22.75C16.177 22.75 19.1832 21.1859 20.9951 18.5737C21.1373 18.3706 21.2632 18.1634 21.3689 17.9522C22.1814 16.3597 21.897 14.5722 20.6254 13.2925L20.6295 13.2884ZM19.4432 16.965C19.3782 17.0909 19.3051 17.2128 19.2198 17.3347C17.8101 19.37 15.4864 20.5847 13.0042 20.5847C10.522 20.5847 8.2023 19.37 6.77637 17.3306C6.69105 17.2087 6.61793 17.0828 6.55293 16.9569C6.01262 15.8762 6.62605 15.084 6.91855 14.7956C7.31262 14.4056 7.9098 14.1131 8.57199 14.1131C8.90918 14.1131 9.25855 14.1862 9.60793 14.365C11.7245 15.4294 14.2757 15.4334 16.3964 14.3731C17.4404 13.8531 18.5089 14.2187 19.0979 14.8159C19.3864 15.1044 19.9957 15.8925 19.4473 16.965H19.4432Z" fill="#4A4A4A"/>
</g>
<defs>
<clipPath id="clip0_1195_7942">
<rect width="26" height="26" fill="white"/>
</clipPath>
</defs>
</svg>
