<svg width="25" height="24" viewBox="0 0 25 24" fill="none" xmlns="http://www.w3.org/2000/svg">
<path fill-rule="evenodd" clip-rule="evenodd" d="M3.12109 4.875C3.12109 3.83947 3.97707 3 5.03296 3H9.62145C10.6773 3 11.5333 3.83947 11.5333 4.875V9.375C11.5333 10.4105 10.6773 11.25 9.62145 11.25H5.03296C3.97707 11.25 3.12109 10.4105 3.12109 9.375V4.875ZM5.03296 4.5C4.82178 4.5 4.65059 4.66789 4.65059 4.875V9.375C4.65059 9.58211 4.82178 9.75 5.03296 9.75H9.62145C9.83262 9.75 10.0038 9.58211 10.0038 9.375V4.875C10.0038 4.66789 9.83262 4.5 9.62145 4.5H5.03296ZM13.0628 4.875C13.0628 3.83947 13.9188 3 14.9747 3H19.5632C20.6191 3 21.475 3.83947 21.475 4.875V9.375C21.475 10.4105 20.6191 11.25 19.5632 11.25H14.9747C13.9188 11.25 13.0628 10.4105 13.0628 9.375V4.875ZM14.9747 4.5C14.7635 4.5 14.5923 4.66789 14.5923 4.875V9.375C14.5923 9.58211 14.7635 9.75 14.9747 9.75H19.5632C19.7743 9.75 19.9455 9.58211 19.9455 9.375V4.875C19.9455 4.66789 19.7743 4.5 19.5632 4.5H14.9747ZM6.18008 6.75C6.18008 6.33579 6.52247 6 6.94483 6H7.70958C8.13194 6 8.47432 6.33579 8.47432 6.75V7.5C8.47432 7.91421 8.13194 8.25 7.70958 8.25H6.94483C6.52247 8.25 6.18008 7.91421 6.18008 7.5V6.75ZM16.1218 6.75C16.1218 6.33579 16.4642 6 16.8865 6H17.6513C18.0736 6 18.416 6.33579 18.416 6.75V7.5C18.416 7.91421 18.0736 8.25 17.6513 8.25H16.8865C16.4642 8.25 16.1218 7.91421 16.1218 7.5V6.75ZM3.12109 14.625C3.12109 13.5895 3.97707 12.75 5.03296 12.75H9.62145C10.6773 12.75 11.5333 13.5895 11.5333 14.625V19.125C11.5333 20.1605 10.6773 21 9.62145 21H5.03296C3.97707 21 3.12109 20.1605 3.12109 19.125V14.625ZM5.03296 14.25C4.82178 14.25 4.65059 14.4179 4.65059 14.625V19.125C4.65059 19.3321 4.82178 19.5 5.03296 19.5H9.62145C9.83262 19.5 10.0038 19.3321 10.0038 19.125V14.625C10.0038 14.4179 9.83262 14.25 9.62145 14.25H5.03296ZM13.0628 13.5C13.0628 13.0858 13.4052 12.75 13.8276 12.75H14.5923C15.0147 12.75 15.357 13.0858 15.357 13.5V14.25C15.357 14.6642 15.0147 15 14.5923 15H13.8276C13.4052 15 13.0628 14.6642 13.0628 14.25V13.5ZM19.1808 13.5C19.1808 13.0858 19.5232 12.75 19.9455 12.75H20.7103C21.1326 12.75 21.475 13.0858 21.475 13.5V14.25C21.475 14.6642 21.1326 15 20.7103 15H19.9455C19.5232 15 19.1808 14.6642 19.1808 14.25V13.5ZM6.18008 16.5C6.18008 16.0858 6.52247 15.75 6.94483 15.75H7.70958C8.13194 15.75 8.47432 16.0858 8.47432 16.5V17.25C8.47432 17.6642 8.13194 18 7.70958 18H6.94483C6.52247 18 6.18008 17.6642 6.18008 17.25V16.5ZM16.1218 16.5C16.1218 16.0858 16.4642 15.75 16.8865 15.75H17.6513C18.0736 15.75 18.416 16.0858 18.416 16.5V17.25C18.416 17.6642 18.0736 18 17.6513 18H16.8865C16.4642 18 16.1218 17.6642 16.1218 17.25V16.5ZM13.0628 19.5C13.0628 19.0858 13.4052 18.75 13.8276 18.75H14.5923C15.0147 18.75 15.357 19.0858 15.357 19.5V20.25C15.357 20.6642 15.0147 21 14.5923 21H13.8276C13.4052 21 13.0628 20.6642 13.0628 20.25V19.5ZM19.1808 19.5C19.1808 19.0858 19.5232 18.75 19.9455 18.75H20.7103C21.1326 18.75 21.475 19.0858 21.475 19.5V20.25C21.475 20.6642 21.1326 21 20.7103 21H19.9455C19.5232 21 19.1808 20.6642 19.1808 20.25V19.5Z" fill="white"/>
</svg>
