<svg width="19" height="18" viewBox="0 0 19 18" fill="none" xmlns="http://www.w3.org/2000/svg">
<g clip-path="url(#clip0_939_6057)">
<path d="M9.08517 0C4.07413 0 0 4.03875 0 9C0 13.9613 4.07413 18 9.08517 18C14.0962 18 18.1703 13.9613 18.1703 9C18.1703 4.03875 14.0962 0 9.08517 0ZM9.08517 16.5009C4.91167 16.5009 1.51325 13.1372 1.51325 9C1.51325 4.86281 4.91167 1.49906 9.08517 1.49906C13.2587 1.49906 16.6571 4.86281 16.6571 9C16.6571 13.1372 13.2615 16.5009 9.08517 16.5009Z" fill="#4A4A4A"/>
<path d="M9.08536 2.25C5.32921 2.25 2.27148 5.27906 2.27148 9C2.27148 9.41344 2.60934 9.75094 3.02953 9.75094C3.44972 9.75094 3.78757 9.41625 3.78757 9C3.78757 6.10594 6.16391 3.74906 9.0882 3.74906C12.0125 3.74906 14.3888 6.10312 14.3888 9C14.3888 9.41344 14.7267 9.75094 15.1469 9.75094C15.5671 9.75094 15.9049 9.41625 15.9049 9C15.9049 5.27906 12.8472 2.25 9.09104 2.25H9.08536Z" fill="#4A4A4A"/>
<path d="M11.5778 5.47029L9.77216 7.25904C9.55923 7.17466 9.32642 7.12685 9.0851 7.12685C8.0403 7.12685 7.19141 7.96779 7.19141 9.00279C7.19141 10.0378 8.0403 10.8787 9.0851 10.8787C10.1299 10.8787 10.9788 10.0378 10.9788 9.00279C10.9788 8.76091 10.9277 8.5331 10.8454 8.32216L12.651 6.53341C12.9463 6.24091 12.9463 5.7656 12.651 5.4731C12.3558 5.1806 11.8759 5.1806 11.5807 5.4731L11.5778 5.47029ZM9.0851 9.37685C8.87784 9.37685 8.70749 9.2081 8.70749 9.00279C8.70749 8.79747 8.87784 8.62872 9.0851 8.62872C9.19014 8.62872 9.28384 8.67091 9.35197 8.73841C9.42011 8.80591 9.4627 8.89872 9.4627 9.00279C9.4627 9.21091 9.29235 9.37685 9.0851 9.37685Z" fill="#4A4A4A"/>
<path d="M6.81468 12.0009C6.39733 12.0009 6.05664 12.3356 6.05664 12.7519V14.2509C6.05664 14.6644 6.3945 15.0019 6.81468 15.0019C7.23487 15.0019 7.57273 14.6672 7.57273 14.2509V12.7519C7.57273 12.3384 7.23487 12.0009 6.81468 12.0009Z" fill="#4A4A4A"/>
<path d="M9.08422 12.0009C8.66687 12.0009 8.32617 12.3356 8.32617 12.7519V14.2509C8.32617 14.6644 8.66403 15.0019 9.08422 15.0019C9.50441 15.0019 9.84226 14.6672 9.84226 14.2509V12.7519C9.84226 12.3384 9.50441 12.0009 9.08422 12.0009Z" fill="#4A4A4A"/>
<path d="M11.3557 12.0009C10.9383 12.0009 10.5977 12.3356 10.5977 12.7519V14.2509C10.5977 14.6644 10.9355 15.0019 11.3557 15.0019C11.7759 15.0019 12.1137 14.6672 12.1137 14.2509V12.7519C12.1137 12.3384 11.7759 12.0009 11.3557 12.0009Z" fill="#4A4A4A"/>
</g>
<defs>
<clipPath id="clip0_939_6057">
<rect width="18.1703" height="18" fill="white"/>
</clipPath>
</defs>
</svg>
