<svg width="18" height="18" viewBox="0 0 18 18" fill="none" xmlns="http://www.w3.org/2000/svg">
<g clip-path="url(#clip0_742_6100)">
<path d="M0 6.00094C0 7.60456 0.62457 9.11254 1.75836 10.2435C2.89215 11.3745 4.40013 12.0019 6.00094 12.0019C7.38512 12.0019 8.65958 11.5264 9.67521 10.7359L10.2942 11.3548C10.0072 12.0188 10.0832 12.8121 10.5445 13.4142C11.0031 14.0106 11.487 14.5986 11.985 15.1641C12.6546 15.9265 13.3636 16.6665 14.095 17.367C14.9925 18.2251 16.4414 18.2054 17.3248 17.322C18.2082 16.4386 18.2307 14.9897 17.3698 14.0922C16.6693 13.3607 15.9294 12.6518 15.1669 11.9822C14.6014 11.487 14.0134 11.0031 13.417 10.5417C12.8149 10.0775 12.0216 10.0016 11.3576 10.2913L10.7387 9.6724C11.5292 8.65677 12.0047 7.38231 12.0047 5.99813C12.0047 4.3945 11.3801 2.88653 10.2463 1.75555C9.11253 0.62457 7.60456 0 6.00094 0C4.39731 0 2.89215 0.62457 1.75836 1.75836C0.62457 2.89215 0 4.39731 0 6.00094ZM11.7852 11.7824C11.9794 11.5883 12.286 11.5686 12.5027 11.7346C13.0738 12.1735 13.6393 12.6377 14.1794 13.1132C14.9081 13.7546 15.6199 14.4326 16.2895 15.1332C16.5877 15.4455 16.5764 15.9519 16.267 16.2641C15.9575 16.5764 15.4483 16.5877 15.136 16.2867C14.4354 15.6171 13.7574 14.9053 13.116 14.1766C12.6405 13.6364 12.1791 13.071 11.7374 12.4998C11.5714 12.286 11.5939 11.9766 11.7852 11.7824ZM1.49953 6.00094C1.49953 4.79963 1.96655 3.66865 2.81901 2.81901C3.66865 1.96937 4.79962 1.49953 6.00094 1.49953C7.20225 1.49953 8.33323 1.96655 9.18287 2.81901C10.0325 3.67146 10.5023 4.79963 10.5023 6.00094C10.5023 8.48234 8.48234 10.5023 6.00094 10.5023C4.79962 10.5023 3.66865 10.0353 2.81901 9.18287C1.96937 8.33042 1.49953 7.20225 1.49953 6.00094Z" fill="#343A40"/>
<path d="M8.65352 3.34795C8.94611 3.64054 8.94611 4.116 8.65352 4.40859C8.36093 4.70119 7.88547 4.70119 7.59288 4.40859C6.7151 3.53082 5.28872 3.53082 4.41095 4.40859C4.11836 4.70119 3.64289 4.70119 3.3503 4.40859C3.05771 4.116 3.05771 3.64054 3.3503 3.34795C4.81326 1.88499 7.19338 1.88499 8.65634 3.34795H8.65352Z" fill="#343A40"/>
</g>
<defs>
<clipPath id="clip0_742_6100">
<rect width="18" height="18" fill="white"/>
</clipPath>
</defs>
</svg>
