<svg width="20" height="20" viewBox="0 0 20 20" fill="none" xmlns="http://www.w3.org/2000/svg">
<g clip-path="url(#clip0_760_12620)">
<path d="M13.7375 0.0590376C12.3094 -0.0253374 10.8625 -0.0222124 9.44375 0.0684126C6.1375 0.280913 3.52813 2.99029 3.35 6.30591C1.30625 7.47466 0 9.66216 0 12.0403V17.7247C0 18.659 0.534375 19.4622 1.39688 19.8215C1.6875 19.9434 1.99063 20.0028 2.2875 20.0028C2.875 20.0028 3.44375 19.7715 3.8875 19.3309C4.40938 18.809 5.15625 18.5528 6.01875 18.6247C6.025 18.6247 6.10625 18.6309 6.1125 18.6309C7.56875 18.7184 8.98125 18.7215 10.4031 18.6403C13.1625 18.4778 15.475 16.6528 16.3188 14.1309C16.725 14.4559 17.2063 14.634 17.7063 14.634C18.0031 14.634 18.3 14.5747 18.5906 14.4559C19.4563 14.0965 19.9969 13.2903 19.9969 12.3528V6.66841C20 3.17154 17.25 0.268413 13.7375 0.0590376ZM10.3094 16.9747C8.95625 17.0528 7.6375 17.0497 6.18438 16.9653L6.1 16.959C4.81875 16.8434 3.58438 17.2778 2.7125 18.1465C2.4375 18.4184 2.125 18.3184 2.0375 18.2809C1.925 18.234 1.66563 18.0872 1.66563 17.7215V12.0372C1.66563 10.5247 2.37188 9.11841 3.51875 8.19029C4.18438 10.9684 6.60938 13.0903 9.59375 13.2653C11.0219 13.3497 12.4688 13.3465 13.8875 13.2559L14.0469 13.2434C14.3125 13.2215 14.5719 13.2465 14.8219 13.2965C14.2781 15.334 12.4844 16.8434 10.3125 16.9715L10.3094 16.9747ZM18.3313 12.3497C18.3313 12.7184 18.0688 12.8653 17.9563 12.9122C17.8438 12.959 17.55 13.0403 17.2938 12.7809C16.5156 12.0028 15.4406 11.5715 14.3031 11.5715C14.1688 11.5715 14.0344 11.5778 13.9 11.5903L13.7844 11.5997C12.4313 11.6872 11.0563 11.6903 9.69375 11.609C7.0625 11.4528 5 9.28091 5 6.66529C5 4.04966 7 1.89654 9.55 1.73404C10.9031 1.64654 12.2781 1.64341 13.6406 1.72466C16.2719 1.88091 18.3344 4.05279 18.3344 6.66841V12.3528L18.3313 12.3497Z" fill="white"/>
<path d="M7.91641 4.58124C6.76641 4.58124 5.83203 5.51561 5.83203 6.66561C5.83203 7.81561 6.76641 8.74999 7.91641 8.74999C9.06641 8.74999 10.0008 7.81561 10.0008 6.66561C10.0008 5.51561 9.06641 4.58124 7.91641 4.58124ZM7.91641 7.08124C7.68516 7.08124 7.50078 6.89374 7.50078 6.66561C7.50078 6.43749 7.68828 6.24999 7.91641 6.24999C8.14453 6.24999 8.33203 6.43749 8.33203 6.66561C8.33203 6.89374 8.14453 7.08124 7.91641 7.08124Z" fill="white"/>
<path d="M12.9164 4.58124C11.7664 4.58124 10.832 5.51561 10.832 6.66561C10.832 7.81561 11.7664 8.74999 12.9164 8.74999C14.0664 8.74999 15.0008 7.81561 15.0008 6.66561C15.0008 5.51561 14.0664 4.58124 12.9164 4.58124ZM12.9164 7.08124C12.6852 7.08124 12.5008 6.89374 12.5008 6.66561C12.5008 6.43749 12.6883 6.24999 12.9164 6.24999C13.1445 6.24999 13.332 6.43749 13.332 6.66561C13.332 6.89374 13.1445 7.08124 12.9164 7.08124Z" fill="white"/>
</g>
<defs>
<clipPath id="clip0_760_12620">
<rect width="20" height="20.0031" fill="white"/>
</clipPath>
</defs>
</svg>
