<svg width="26" height="26" viewBox="0 0 26 26" fill="none" xmlns="http://www.w3.org/2000/svg">
<path d="M26 8.66531C26 8.56375 25.9838 8.46625 25.9594 8.36875L24.6919 3.92844C24.0297 1.61688 21.8888 0 19.4837 0H6.52031C4.11125 0 1.97031 1.61688 1.31219 3.92844L0.040625 8.36875C0.0121875 8.46625 0 8.56781 0 8.66531C0 10.2619 0.8775 11.6431 2.16531 12.3947V20.5806C2.16531 23.5666 4.59469 25.9959 7.58063 25.9959H8.66531C9.85969 25.9959 10.8306 25.025 10.8306 23.8306V20.5806C10.8306 19.3863 11.8016 18.4153 12.9959 18.4153C14.1903 18.4153 15.1613 19.3863 15.1613 20.5806V23.8306C15.1613 25.025 16.1322 25.9959 17.3266 25.9959H18.4112C21.3972 25.9959 23.8266 23.5666 23.8266 20.5806V12.3947C25.1144 11.6431 25.9919 10.2619 25.9919 8.66531H26ZM3.39219 4.52563C3.79031 3.13625 5.07406 2.16938 6.51625 2.16938H19.4797C20.9219 2.16938 22.2097 3.14031 22.6038 4.52563L23.8266 8.8075C23.7575 9.93688 22.815 10.8388 21.6653 10.8388C21.0438 10.8388 20.4506 10.5706 20.0362 10.1034C19.6259 9.63625 19.0328 9.36813 18.4153 9.36813C17.7978 9.36813 17.2047 9.63625 16.7944 10.1034C16.0306 10.9688 14.5803 11.0581 13.7272 10.2863C13.3128 9.9125 12.6831 9.9125 12.2728 10.2863C11.4156 11.0622 9.96531 10.9728 9.20562 10.1034C8.79531 9.63625 8.20219 9.36813 7.58469 9.36813C6.96719 9.36813 6.37406 9.63625 5.96375 10.1034C5.55344 10.5706 4.96031 10.8388 4.33469 10.8388C3.185 10.8388 2.2425 9.94094 2.17344 8.8075L3.39625 4.52563H3.39219ZM21.6653 20.5847C21.6653 22.3763 20.2069 23.8347 18.4153 23.8347H17.3306V20.5847C17.3306 18.1959 15.3847 16.25 12.9959 16.25C10.6072 16.25 8.66125 18.1959 8.66125 20.5847V23.8347H7.57656C5.785 23.8347 4.32656 22.3763 4.32656 20.5847V13C5.57375 13 6.75594 12.4638 7.56844 11.5253C8.89687 13.0406 11.2775 13.4103 12.9919 12.415C14.7022 13.4103 17.095 13.0366 18.4031 11.5253C19.2278 12.4597 20.4141 12.9959 21.6572 12.9959V20.5806L21.6653 20.5847Z" fill="#4A4A4A"/>
</svg>
