<svg width="200" height="42" viewBox="0 0 200 42" fill="none" xmlns="http://www.w3.org/2000/svg">
<g clip-path="url(#clip0_769_7261)">
<path d="M66.1098 19.9193H74.411L75.5142 14.0253H67.2129L68.784 5.66699L61.7975 7.69979L60.5941 14.014L54.6551 15.195L53.7637 19.9079H59.491L56.8056 33.8309C56.2819 36.5792 56.6608 38.5665 57.9645 39.8044C59.257 41.0309 61.1847 41.6555 63.7475 41.6555C64.6946 41.6555 65.664 41.5646 66.6669 41.3829C67.6697 41.2012 68.6949 40.9514 69.7423 40.6334L71.1574 40.2018L70.7897 35.012L69.8983 35.1142C69.3411 35.1482 68.7729 35.1937 68.2157 35.2505C67.6586 35.3072 66.9566 35.3299 66.1098 35.3299C65.0958 35.3299 64.3826 35.0915 63.9815 34.6031C63.5804 34.1262 63.4689 33.3994 63.6361 32.4341L66.1098 19.8966V19.9193Z" fill="#1C1C1C"/>
<path d="M97.1863 15.5015C95.526 14.2296 93.3755 13.605 90.7458 13.605C88.261 13.605 85.9322 14.0933 83.7816 15.0813C81.6311 16.0693 79.7925 17.5229 78.2883 19.4763C76.784 21.4182 75.7255 23.8598 75.1349 26.7898C74.5778 29.7879 74.7449 32.3999 75.6363 34.6371C76.5277 36.8743 77.9429 38.6005 79.8928 39.827C81.8428 41.0535 84.1048 41.6781 86.701 41.6781C88.105 41.6781 89.5758 41.5077 91.1135 41.167C92.6512 40.8263 94.2335 40.3153 95.838 39.6453L97.788 38.7935L96.6849 34.2964L94.5343 34.8869C93.4423 35.1708 92.3838 35.398 91.3586 35.5569C90.3224 35.7159 89.353 35.7954 88.4393 35.7954C86.9684 35.7954 85.7205 35.5797 84.6842 35.1481C83.6479 34.7166 82.8679 34.0465 82.3442 33.1153C81.8205 32.1841 81.5531 30.969 81.5531 29.4699H100.418L100.886 27.2781C101.342 24.8478 101.253 22.5993 100.618 20.5324C99.9831 18.4655 98.8354 16.7961 97.1751 15.5242L97.1863 15.5015ZM82.4445 24.5299C83.1131 22.815 84.0602 21.5204 85.2859 20.646C86.5116 19.7715 87.9824 19.3286 89.6984 19.3286C91.4144 19.3286 92.6846 19.8056 93.6095 20.7482C94.5343 21.6908 95.0246 22.9513 95.058 24.5299H82.4445Z" fill="#1C1C1C"/>
<path d="M116.664 0L109.677 1.71482L103.582 34.0125C103.337 35.4093 103.382 36.6812 103.716 37.8396C104.05 38.9979 104.73 39.9292 105.766 40.6219C106.803 41.3146 108.207 41.6667 110.001 41.6667C110.591 41.6667 111.226 41.6099 111.895 41.5077C112.563 41.4055 113.21 41.2351 113.845 41.0307L115.16 35.7841C114.703 35.8522 114.246 35.8976 113.789 35.9203C113.332 35.9431 112.842 35.9431 112.318 35.9431C111.482 35.9431 110.881 35.75 110.535 35.3525C110.19 34.9551 110.112 34.2964 110.324 33.3652L116.664 0Z" fill="#1C1C1C"/>
<path d="M142.615 18.3406C141.668 16.8983 140.386 15.74 138.782 14.8883C137.166 14.0365 135.261 13.605 133.055 13.605C130.113 13.605 127.606 14.1501 125.544 15.2403C123.472 16.3305 121.812 17.8409 120.552 19.7715C119.293 21.7021 118.413 23.9166 117.923 26.415C117.399 29.2314 117.533 31.798 118.346 34.1033C119.149 36.4087 120.497 38.2484 122.391 39.6225C124.285 40.9967 126.581 41.6894 129.277 41.6894C132.185 41.6894 134.67 41.1556 136.743 40.0881C138.804 39.0206 140.476 37.5216 141.735 35.591C142.994 33.6604 143.874 31.4346 144.364 28.8907C144.743 26.9601 144.788 25.0863 144.498 23.2693C144.197 21.4523 143.573 19.8169 142.637 18.3633L142.615 18.3406ZM137.679 28.3797C137.255 30.7759 136.375 32.5588 135.027 33.7399C133.679 34.921 131.929 35.5115 129.801 35.5115C128.609 35.5115 127.55 35.1935 126.625 34.5689C125.7 33.9443 125.021 32.9904 124.597 31.7071C124.174 30.4238 124.163 28.8112 124.542 26.8806C124.932 24.6661 125.745 22.9286 126.982 21.6567C128.219 20.3848 129.99 19.7602 132.263 19.7602C133.801 19.7602 135.027 20.1576 135.918 20.9639C136.81 21.7702 137.411 22.8264 137.701 24.121C138.002 25.427 137.991 26.8466 137.679 28.3797Z" fill="#1C1C1C"/>
<path d="M160.856 30.583H159.207L165.425 41.2353H172.523L164.333 26.9717L160.856 30.583Z" fill="#1C1C1C"/>
<path d="M163.117 24.8479L164.332 26.9715L176.778 14.0365H168.789L159.073 24.6889H156.443L161.168 0L154.237 1.71482L146.671 41.2352H153.29L155.34 30.5828H159.206L158.861 29.9923L163.117 24.8479Z" fill="#1C1C1C"/>
<path d="M164.332 26.9713L160.856 30.5827H159.207L158.861 29.9921L163.118 24.8477L164.332 26.9713Z" fill="#1C1C1C"/>
<path d="M197.036 36.227C196.568 35.8522 196.434 35.08 196.646 33.8989L198.596 23.1898C198.875 21.7589 198.875 20.4643 198.596 19.3059C198.317 18.1476 197.794 17.1368 197.014 16.2851C196.245 15.4334 195.231 14.7633 193.994 14.2977C192.746 13.8321 191.309 13.605 189.66 13.605C188.01 13.605 186.283 13.798 184.668 14.1728C183.152 14.5249 181.67 14.9337 180.222 15.3993L179.197 20.7368L180.612 20.4188C181.626 20.2031 182.718 20.0214 183.865 19.8851C185.024 19.7488 186.25 19.6693 187.542 19.6693C189.403 19.6693 190.674 20.0441 191.353 20.7936C192.033 21.5431 192.278 22.4857 192.066 23.6327L191.977 24.0756L183.598 25.5065C181.392 25.8586 179.631 26.381 178.316 27.0623C177.002 27.7437 176.021 28.5727 175.375 29.5494C174.728 30.5374 174.26 31.6617 173.982 32.945C173.636 34.7279 173.781 36.2724 174.428 37.5784C175.074 38.8844 176.032 39.8951 177.291 40.5992C178.55 41.3147 179.932 41.6667 181.447 41.6667C182.673 41.6667 183.899 41.4396 185.125 40.974C186.35 40.5083 187.542 39.8156 188.701 38.8844L190.495 37.4308C190.729 38.3393 191.097 39.1683 191.643 39.9065C192.523 41.0875 194.072 41.6781 196.323 41.6781C196.635 41.6781 197.014 41.6553 197.448 41.5986C197.883 41.5418 198.329 41.4623 198.785 41.3601L199.989 37.0787C198.485 36.897 197.493 36.6245 197.014 36.2497L197.036 36.227ZM190.161 33.5014L188.768 34.3191C187.788 34.8869 186.818 35.3185 185.882 35.6024C184.935 35.8863 184.111 36.0339 183.409 36.0339C182.428 36.0339 181.637 35.7954 181.046 35.3071C180.445 34.8301 180.244 34.0352 180.411 32.9223C180.511 32.4566 180.679 32.0478 180.913 31.6958C181.147 31.3437 181.459 31.0257 181.86 30.7532C182.261 30.4806 182.762 30.2762 183.353 30.1399L191.231 28.0049L190.172 33.5014H190.161Z" fill="#1C1C1C"/>
<path d="M13.8369 8.2953C15.5074 6.91955 15.968 4.6772 14.8657 3.28686C13.7634 1.89653 11.5155 1.8847 9.84503 3.26045C8.17453 4.6362 7.71392 6.87855 8.81624 8.26889C9.91856 9.65923 12.1664 9.67105 13.8369 8.2953Z" fill="url(#paint0_radial_769_7261)"/>
<path d="M11.4027 24.1974C13.5854 22.3999 14.1884 19.4716 12.7496 17.6568C11.3108 15.8421 8.37498 15.8281 6.19231 17.6256C4.00964 19.4232 3.40663 22.3515 4.84544 24.1663C6.28426 25.981 9.22006 25.995 11.4027 24.1974Z" fill="url(#paint1_radial_769_7261)"/>
<path d="M29.6361 9.06757C31.8188 7.27003 32.4218 4.34168 30.983 2.52693C29.5442 0.712173 26.6084 0.698216 24.4257 2.49576C22.243 4.2933 21.64 7.22164 23.0788 9.03639C24.5177 10.8511 27.4535 10.8651 29.6361 9.06757Z" fill="url(#paint2_radial_769_7261)"/>
<path d="M8.92651 40.0355C11.583 37.8477 12.3162 34.2827 10.5641 32.0728C8.81203 29.8629 5.23811 29.845 2.58158 32.0328C-0.0749647 34.2206 -0.808154 37.7856 0.943952 39.9955C2.69606 42.2054 6.26997 42.2233 8.92651 40.0355Z" fill="url(#paint3_radial_769_7261)"/>
<path d="M40.1358 28.4704C40.4143 27.1076 41.2278 25.8243 42.3866 24.859C43.6011 23.8483 44.5037 22.4515 44.8157 20.907C45.1277 19.3625 44.7823 17.9657 43.9689 16.955C43.2 15.9897 42.8992 14.7064 43.1666 13.3436C43.434 12.0149 44.1917 10.7317 45.3283 9.80043C46.788 8.61936 47.8242 6.88183 47.9468 4.99667C48.1139 2.4869 46.4425 0.46546 43.98 0.18155C40.6372 -0.204568 37.2052 2.44147 36.5367 5.7689C36.2247 7.31337 36.5701 8.71021 37.3835 9.72093C38.1524 10.6862 38.4532 11.9695 38.1858 13.3323C37.9184 14.695 37.0938 15.9783 35.935 16.9436C34.7204 17.9543 33.8179 19.3512 33.5059 20.8956C33.1939 22.4401 33.5393 23.8369 34.3527 24.8477C35.1216 25.813 35.4224 27.0962 35.155 28.459C34.8876 29.7877 34.1299 31.071 32.9933 32.0022C31.5336 33.1833 30.4973 34.9208 30.3748 36.806C30.2076 39.3157 31.879 41.3372 34.3416 41.6211C37.6844 42.0072 41.1163 39.3612 41.7849 36.0337C42.0969 34.4893 41.7515 33.0924 40.938 32.0817C40.1692 31.1164 39.8683 29.8331 40.1358 28.4704Z" fill="url(#paint4_radial_769_7261)"/>
<path d="M24.96 28.4706C25.2274 27.1419 25.9851 25.8586 27.1217 24.9274C28.5814 23.7463 29.6176 22.0088 29.7402 20.1236C29.9073 17.6139 28.2359 15.5924 25.7734 15.3085C22.4306 14.9224 18.9987 17.5684 18.3301 20.8959C18.0181 22.4403 18.3635 23.8372 19.1769 24.8479C19.9458 25.8132 20.2466 27.0965 19.9792 28.4592C19.7118 29.822 18.9541 31.0712 17.8175 32.0024C16.3578 33.1835 15.3216 34.921 15.199 36.8062C15.0319 39.316 16.7033 41.3374 19.1658 41.6213C22.5086 42.0074 25.9405 39.3614 26.6091 36.034C26.9211 34.4895 26.5757 33.0926 25.7623 32.0819C24.9934 31.1166 24.6926 29.8334 24.96 28.4706Z" fill="url(#paint5_radial_769_7261)"/>
</g>
<defs>
<radialGradient id="paint0_radial_769_7261" cx="0" cy="0" r="1" gradientUnits="userSpaceOnUse" gradientTransform="translate(24.8322 -0.152501) scale(21.4051 21.3794)">
<stop stop-color="#939598"/>
<stop offset="1" stop-color="#6E6F72"/>
</radialGradient>
<radialGradient id="paint1_radial_769_7261" cx="0" cy="0" r="1" gradientUnits="userSpaceOnUse" gradientTransform="translate(29.128 0.741125) scale(27.8569 27.8346)">
<stop stop-color="#939598"/>
<stop offset="1" stop-color="#6E6F72"/>
</radialGradient>
<radialGradient id="paint2_radial_769_7261" cx="0" cy="0" r="1" gradientUnits="userSpaceOnUse" gradientTransform="translate(31.8354 -1.94928) scale(27.8569 27.8346)">
<stop stop-color="#939598"/>
<stop offset="1" stop-color="#6E6F72"/>
</radialGradient>
<radialGradient id="paint3_radial_769_7261" cx="0" cy="0" r="1" gradientUnits="userSpaceOnUse" gradientTransform="translate(46.2574 7.16355) scale(46.9397 46.902)">
<stop stop-color="#EF4F78"/>
<stop offset="1" stop-color="#EE1F44"/>
</radialGradient>
<radialGradient id="paint4_radial_769_7261" cx="0" cy="0" r="1" gradientUnits="userSpaceOnUse" gradientTransform="translate(46.2707 0.567668) scale(46.9397 46.902)">
<stop stop-color="#EF4F78"/>
<stop offset="1" stop-color="#EE1F44"/>
</radialGradient>
<radialGradient id="paint5_radial_769_7261" cx="0" cy="0" r="1" gradientUnits="userSpaceOnUse" gradientTransform="translate(46.2713 7.16596) scale(46.9397 46.902)">
<stop stop-color="#EF4F78"/>
<stop offset="1" stop-color="#EE1F44"/>
</radialGradient>
<clipPath id="clip0_769_7261">
<rect width="200" height="41.6667" fill="white"/>
</clipPath>
</defs>
</svg>
