<svg width="22" height="22" viewBox="0 0 22 22" fill="none" xmlns="http://www.w3.org/2000/svg">
<g clip-path="url(#clip0_742_10789)">
<path d="M16.4314 0H5.56862C2.49315 0 0 2.49315 0 5.56862V16.4314C0 19.5068 2.49315 22 5.56862 22H16.4314C19.5068 22 22 19.5068 22 16.4314V5.56862C22 2.49315 19.5068 0 16.4314 0Z" fill="black"/>
<path fill-rule="evenodd" clip-rule="evenodd" d="M13.8507 9.27697C14.729 9.90519 15.8086 10.2772 16.9736 10.2772V8.03882C16.754 8.03882 16.5344 8.01442 16.3148 7.97173V9.73441C15.1499 9.73441 14.0703 9.36236 13.192 8.73413V13.3086C13.192 15.5958 11.3379 17.45 9.05063 17.45C8.19674 17.45 7.40384 17.1938 6.74512 16.7486C7.49533 17.5171 8.5444 17.9928 9.70935 17.9928C11.9966 17.9928 13.8507 16.1386 13.8507 13.8514V9.27697ZM14.6619 7.01415C14.2106 6.52011 13.9178 5.88578 13.8507 5.18437V4.89771H13.2286C13.3872 5.7882 13.9178 6.5506 14.6619 7.01415ZM8.19064 14.9859C7.94057 14.6565 7.80639 14.254 7.80639 13.8392C7.80639 12.7901 8.65418 11.9423 9.70325 11.9423C9.89843 11.9423 10.0936 11.9728 10.2766 12.0338V9.74051C10.057 9.71002 9.83744 9.69782 9.61786 9.70392V11.4849C9.43489 11.4239 9.23971 11.3934 9.04453 11.3934C7.99546 11.3934 7.14767 12.2412 7.14767 13.2903C7.14767 14.0283 7.57462 14.6687 8.19064 14.9798V14.9859Z" fill="#EE1D52"/>
<path fill-rule="evenodd" clip-rule="evenodd" d="M13.1988 8.73414C14.0771 9.36236 15.1566 9.73442 16.3216 9.73442V7.97173C15.669 7.83145 15.0956 7.49599 14.6626 7.02025C13.9246 6.55671 13.3878 5.7943 13.2293 4.90381H11.5947V13.8514C11.5947 14.8944 10.7408 15.7422 9.69779 15.7422C9.08177 15.7422 8.53284 15.4494 8.19128 14.992C7.57525 14.6809 7.14831 14.0405 7.14831 13.3025C7.14831 12.2534 7.9961 11.4056 9.04517 11.4056C9.24645 11.4056 9.44162 11.4361 9.6185 11.4971V9.71612C7.36788 9.76491 5.5625 11.6008 5.5625 13.8575C5.5625 14.9859 6.01384 16.0044 6.74575 16.7547C7.40447 17.1999 8.19738 17.4561 9.05127 17.4561C11.3385 17.4561 13.1927 15.6019 13.1927 13.3147V8.74024L13.1988 8.73414Z" fill="white"/>
<path fill-rule="evenodd" clip-rule="evenodd" d="M16.3211 7.97172V7.49598C15.7356 7.49598 15.1623 7.3313 14.6621 7.02024C15.1013 7.50208 15.6807 7.83754 16.3211 7.97172ZM13.2288 4.9038C13.2166 4.81841 13.2044 4.73302 13.1922 4.64763V4.36096H10.9355V13.3147C10.9355 14.3576 10.0877 15.2054 9.03861 15.2054C8.73365 15.2054 8.44089 15.1322 8.18472 15.0042C8.53237 15.4616 9.07521 15.7544 9.69123 15.7544C10.7342 15.7544 11.582 14.9066 11.5881 13.8636V4.91599H13.2227L13.2288 4.9038ZM9.61804 9.71611V9.20987C9.42896 9.18547 9.23989 9.17327 9.05081 9.17327C6.76359 9.17327 4.90332 11.0274 4.90332 13.3147C4.90332 14.748 5.63523 16.0105 6.73919 16.7546C6.00728 16.0105 5.55594 14.9859 5.55594 13.8575C5.55594 11.6008 7.36132 9.7649 9.61194 9.71611H9.61804Z" fill="#69C9D0"/>
</g>
<defs>
<clipPath id="clip0_742_10789">
<rect width="22" height="22" fill="white"/>
</clipPath>
</defs>
</svg>
