<svg width="17" height="16" viewBox="0 0 17 16" fill="none" xmlns="http://www.w3.org/2000/svg">
<g clip-path="url(#clip0_939_6073)">
<path d="M7.73076 12.945C8.25902 12.425 8.25902 11.58 7.73076 11.06C7.20251 10.54 6.3441 10.54 5.81584 11.06L5.41965 11.45L5.41965 2.66502C5.41965 1.93002 4.81521 1.33002 4.06346 1.33002C3.31172 1.33002 2.70727 1.92502 2.70727 2.66502L2.70727 11.445L2.31108 11.055C1.78283 10.535 0.924414 10.535 0.39616 11.055C0.132033 11.315 -3.00224e-05 11.655 -3.00377e-05 12C-3.0053e-05 12.345 0.132033 12.68 0.39616 12.945L3.10346 15.61C3.63172 16.13 4.49013 16.13 5.01838 15.61L7.72568 12.945L7.73076 12.945Z" fill="#4A4A4A"/>
<path d="M8.12692 4C8.12692 4.34 8.25899 4.68 8.52311 4.945C9.05137 5.465 9.90978 5.465 10.438 4.945L10.8342 4.555L10.8342 13.335C10.8342 14.07 11.4387 14.67 12.1904 14.67C12.9422 14.67 13.5466 14.075 13.5466 13.335L13.5466 4.55L13.9428 4.94C14.471 5.46 15.3295 5.46 15.8577 4.94C16.386 4.42 16.386 3.575 15.8577 3.055L13.1504 0.39C12.6222 -0.13 11.7637 -0.13 11.2355 0.39L8.52819 3.055C8.26407 3.315 8.132 3.655 8.132 4L8.12692 4Z" fill="#4A4A4A"/>
</g>
<defs>
<clipPath id="clip0_939_6073">
<rect width="16" height="16.254" fill="white" transform="translate(16.2539) rotate(90)"/>
</clipPath>
</defs>
</svg>
