<svg width="17" height="22" viewBox="0 0 17 22" fill="none" xmlns="http://www.w3.org/2000/svg">
<g clip-path="url(#clip0_939_6079)">
<path d="M16.1152 6.77C16.0305 5.58 15.4853 4.49667 14.5846 3.72L11.5539 1.10333C10.731 0.393333 9.67451 0 8.57737 0H4.91006C2.63111 0 0.700953 1.68333 0.419895 3.92C0.138836 6.15333 0 8.42333 0 10.6667C0 12.91 0.142222 15.22 0.426667 17.4667C0.70434 19.67 2.63111 21.3333 4.90667 21.3333H11.3473C13.6263 21.3333 15.553 19.65 15.8341 17.4133C16.1152 15.18 16.254 12.91 16.254 10.6667C16.254 9.37333 16.2066 8.06 16.1152 6.77ZM12.6849 4.44333H11.7401C11.2423 4.44333 10.836 4.04333 10.836 3.55333V2.84667L12.6849 4.44V4.44333ZM14.0428 17.1967C13.8735 18.5433 12.7154 19.5567 11.3473 19.5567H4.90667C3.54202 19.5567 2.38731 18.5633 2.22138 17.2467C1.94709 15.0733 1.80826 12.86 1.80826 10.6667C1.80826 8.47333 1.94709 6.29667 2.21461 4.13667C2.38392 2.79 3.54202 1.77667 4.91006 1.77667H8.57737C8.72975 1.77667 8.88213 1.79333 9.03451 1.81667V3.55333C9.03451 5.02333 10.2502 6.22 11.7435 6.22H14.1714C14.2459 6.43667 14.3001 6.66 14.3171 6.89333C14.4051 8.14333 14.4525 9.41 14.4525 10.6633C14.4525 12.8367 14.3137 15.0333 14.0462 17.1933L14.0428 17.1967Z" fill="#4A4A4A"/>
<path d="M11.4756 11.8166C11.1235 11.47 10.5512 11.47 10.199 11.8166C9.84684 12.1633 9.84684 12.7266 10.199 13.0733L10.4631 13.3333H4.5135C4.01572 13.3333 3.60938 13.73 3.60938 14.2233C3.60938 14.7166 4.01234 15.1133 4.5135 15.1133H10.4598L10.1956 15.3733C9.84346 15.72 9.84346 16.2833 10.1956 16.63C10.3717 16.8033 10.602 16.89 10.8356 16.89C11.0693 16.89 11.2962 16.8033 11.4756 16.63L13.2805 14.8533C13.6327 14.5066 13.6327 13.9433 13.2805 13.5966L11.4756 11.82V11.8166Z" fill="#4A4A4A"/>
<path d="M5.4185 11.5567C5.64877 11.5567 5.87903 11.47 6.0585 11.2967C6.41067 10.95 6.41067 10.3867 6.0585 10.04L5.79438 9.77999H11.7406C12.2384 9.77999 12.6448 9.38333 12.6448 8.88999C12.6448 8.39666 12.2418 7.99999 11.7406 7.99999H5.79438L6.0585 7.73999C6.41067 7.39333 6.41067 6.82999 6.0585 6.48333C5.70633 6.13666 5.13406 6.13666 4.78189 6.48333L2.97702 8.25999C2.62485 8.60666 2.62485 9.16999 2.97702 9.51666L4.78189 11.2933C4.95797 11.4667 5.18824 11.5533 5.42189 11.5533L5.4185 11.5567Z" fill="#4A4A4A"/>
</g>
<defs>
<clipPath id="clip0_939_6079">
<rect width="16.254" height="21.3333" fill="white"/>
</clipPath>
</defs>
</svg>
