<svg width="22" height="22" viewBox="0 0 22 22" fill="none" xmlns="http://www.w3.org/2000/svg">
<g clip-path="url(#clip0_742_10795)">
<path d="M16.4314 0H5.56862C2.49315 0 0 2.49315 0 5.56862V16.4314C0 19.5068 2.49315 22 5.56862 22H16.4314C19.5068 22 22 19.5068 22 16.4314V5.56862C22 2.49315 19.5068 0 16.4314 0Z" fill="#00D95F"/>
<path d="M5.12988 17.3341L6.03867 13.9551C5.52633 13.028 5.25797 11.9911 5.25797 10.942C5.25797 7.50207 8.05752 4.70251 11.4975 4.70251C14.9375 4.70251 17.737 7.50207 17.737 10.942C17.737 14.382 14.9375 17.1816 11.4975 17.1816C10.4667 17.1816 9.44205 16.9193 8.53327 16.4253L5.13598 17.3341H5.12988ZM8.69795 15.1566L8.91142 15.2847C9.69822 15.7544 10.5887 15.9983 11.4975 15.9983C14.291 15.9983 16.5599 13.7294 16.5599 10.936C16.5599 8.14249 14.291 5.87357 11.4975 5.87357C8.70404 5.87357 6.43512 8.14249 6.43512 10.936C6.43512 11.8569 6.69129 12.7657 7.17313 13.5586L7.30732 13.7721L6.80108 15.6568L8.69795 15.1505V15.1566Z" fill="white"/>
<path fill-rule="evenodd" clip-rule="evenodd" d="M13.8155 11.8082C13.5593 11.6557 13.2239 11.4849 12.9189 11.6069C12.6872 11.7045 12.5408 12.0643 12.3883 12.2534C12.309 12.351 12.2175 12.3632 12.1016 12.3144C11.2294 11.9667 10.5646 11.3873 10.0828 10.5822C10.0035 10.4602 10.0157 10.3565 10.1133 10.2468C10.2596 10.076 10.4426 9.8808 10.4792 9.64903C10.5158 9.41726 10.4121 9.14889 10.3145 8.94152C10.1926 8.67925 10.0584 8.30719 9.79611 8.15471C9.55214 8.02053 9.23498 8.09372 9.0215 8.2706C8.64945 8.57556 8.47257 9.0452 8.47867 9.51485C8.47867 9.64903 8.49697 9.78321 8.52746 9.9113C8.60065 10.2224 8.74704 10.509 8.90562 10.7835C9.0276 10.9909 9.16178 11.1921 9.30207 11.3873C9.76561 12.0216 10.345 12.5706 11.0221 12.9792C11.3575 13.1866 11.7174 13.3635 12.0955 13.4916C12.5164 13.6318 12.8884 13.7721 13.3398 13.6867C13.8155 13.5952 14.2791 13.3025 14.4681 12.845C14.523 12.7109 14.5535 12.5584 14.523 12.4181C14.4559 12.1253 14.0595 11.9484 13.8216 11.8021L13.8155 11.8082Z" fill="white"/>
</g>
<defs>
<clipPath id="clip0_742_10795">
<rect width="22" height="22" fill="white"/>
</clipPath>
</defs>
</svg>
