<svg width="22" height="22" viewBox="0 0 22 22" fill="none" xmlns="http://www.w3.org/2000/svg">
<g clip-path="url(#clip0_742_10800)">
<path d="M16.4314 0H5.56862C2.49315 0 0 2.49315 0 5.56862V16.4314C0 19.5068 2.49315 22 5.56862 22H16.4314C19.5068 22 22 19.5068 22 16.4314V5.56862C22 2.49315 19.5068 0 16.4314 0Z" fill="#FF0000"/>
<path d="M16.8154 9.67347C16.8154 8.23404 15.6444 7.06299 14.2049 7.06299H7.53236C6.09293 7.06299 4.92188 8.23404 4.92188 9.67347V12.778C4.92188 14.2174 6.08683 15.3885 7.53236 15.3885H14.2049C15.6444 15.3885 16.8154 14.2235 16.8154 12.778V9.67347ZM12.8936 11.4605L9.90496 12.9427C9.78908 13.0037 9.38653 12.9183 9.38653 12.7902V9.75276C9.38653 9.61857 9.78908 9.53318 9.90496 9.60028L12.7655 11.1556C12.8875 11.2227 13.0095 11.3996 12.8875 11.4605H12.8936Z" fill="white"/>
</g>
<defs>
<clipPath id="clip0_742_10800">
<rect width="22" height="22" fill="white"/>
</clipPath>
</defs>
</svg>
